<svg width="80" height="81" viewBox="0 0 80 81" fill="none" xmlns="http://www.w3.org/2000/svg">
<path fill-rule="evenodd" clip-rule="evenodd" d="M31.1426 18.3209C27.4248 18.858 24.6728 20.1562 22.2346 22.5229C20.16 24.5366 18.7024 26.9992 18.0151 29.6518L17.8381 30.3347L17.5873 30.3806C17.0052 30.4868 15.3618 31.0979 14.4754 31.5378C6.85535 35.319 3.80246 44.6872 7.68837 52.3641C9.52597 55.9944 12.8656 58.833 16.7109 60.0331C17.6415 60.3235 19.2884 60.6553 19.8167 60.6588L20.0075 60.6601V58.8006V56.9411H19.8276C19.4812 56.9411 18.2318 56.6511 17.5099 56.403C15.0886 55.5712 13.0044 53.9406 11.5607 51.7485C10.791 50.5798 10.1801 49.0888 9.8789 47.6436C9.66611 46.623 9.61533 44.8143 9.76956 43.7492C10.1633 41.0289 11.2774 38.8057 13.1836 36.9364C14.8393 35.3127 16.7109 34.337 19.0855 33.8596C20.2428 33.627 20.6089 33.4461 20.9165 32.9556C21.1394 32.6001 21.1793 32.4652 21.355 31.4695C21.7826 29.0469 23.1863 26.5555 25.054 24.904C30.7946 19.828 39.5631 21.5402 43.0446 28.4171C43.5054 29.3272 43.7536 29.6447 44.1856 29.8765C44.4357 30.0106 44.6174 30.0299 46.0241 30.0709C47.3718 30.1102 47.6989 30.1426 48.4176 30.3082C50.3377 30.7508 52.1049 31.6535 53.5169 32.9133C53.8031 33.1686 54.2049 33.4575 54.4099 33.5552C54.7725 33.7282 54.8086 33.7317 55.7627 33.6843C57.8198 33.5821 59.6089 33.9386 61.4251 34.8127C63.8102 35.9605 65.6836 37.8437 66.8424 40.2583L67.2045 41.0126H69.1314H71.0583L70.9886 40.7575C70.8479 40.2422 70.428 39.2077 70.0535 38.4538C68.5543 35.4353 66.1467 33.0286 63.1282 31.5308C61.0648 30.5069 58.9352 29.996 56.7319 29.996H55.7914L55.3653 29.6547C53.6607 28.2894 51.5611 27.2667 49.3889 26.744C48.593 26.5523 47.0807 26.3471 46.4648 26.3471H46.1068L45.8822 25.9437C44.7502 23.9099 42.7779 21.8633 40.6774 20.5429C39.5578 19.8391 37.9881 19.1502 36.7082 18.801C35.3039 18.4179 34.6425 18.3317 32.9464 18.3106C32.0688 18.2997 31.2571 18.3043 31.1426 18.3209ZM30.9958 44.2786C27.2732 44.8282 24.6788 46.9133 23.5877 50.2326C23.203 51.4029 23.1046 52.0865 23.1022 53.608C23.0997 55.1553 23.1905 55.8294 23.5543 56.9631C24.4176 59.6538 26.5507 61.4403 29.7479 62.1505C30.3654 62.2877 30.6471 62.306 32.1139 62.3046C33.0297 62.3037 34.0756 62.2641 34.4381 62.2166C35.1914 62.118 36.4048 61.9185 36.437 61.8881C36.4488 61.8769 36.534 61.3354 36.6262 60.685C36.7184 60.0345 36.8222 59.3503 36.8566 59.1646C36.9103 58.8761 36.9042 58.8328 36.8147 58.8676C36.5841 58.957 35.0576 59.3256 34.4381 59.4413C33.4886 59.6187 31.5275 59.6187 30.8765 59.4413C29.7278 59.1283 28.9122 58.6501 28.1704 57.8547C26.7433 56.3246 26.3341 53.4836 27.1915 51.0574C27.5366 50.081 27.9089 49.4957 28.6726 48.7289C29.4149 47.9835 30.0082 47.6223 31.0132 47.3036C32.483 46.8377 34.3166 46.8833 36.429 47.4384C36.7943 47.5344 37.1085 47.5974 37.1273 47.5783C37.1646 47.5407 37.036 44.669 36.9953 44.6288C36.9472 44.5815 35.2291 44.3134 34.5174 44.2421C33.5517 44.1454 31.7732 44.1639 30.9958 44.2786ZM42.8154 44.4333L40.1964 44.4526L40.1956 44.8903C40.1936 45.9443 40.0538 51.6003 39.987 53.3273C39.869 56.3798 39.5825 61.0052 39.4625 61.7926L39.4236 62.0481L41.2614 62.0472L43.0992 62.0462L43.1375 61.476C43.1586 61.1623 43.2084 59.2795 43.2481 57.2919C43.3227 53.5661 43.5013 48.0716 43.5693 47.4075L43.6079 47.0311L45.4577 47.0669C47.4548 47.1057 47.8492 47.1626 48.4054 47.4923C49.0501 47.8745 49.3771 48.5157 49.3771 49.3978C49.3771 50.1934 49.1064 50.877 48.5631 51.4537C47.9614 52.0922 47.2067 52.378 45.9894 52.4284C45.5315 52.4473 44.9696 52.4316 44.7406 52.3935C44.5117 52.3554 44.3147 52.3334 44.303 52.3445C44.2913 52.3557 44.8459 53.5836 45.5355 55.0732C47.0355 58.3133 47.1507 58.5792 47.9017 60.537L48.487 62.063L50.4873 62.0632L52.4876 62.0634L51.9369 60.9934C51.634 60.4048 51.0417 59.2748 50.6208 58.4823C49.4804 56.3353 48.3656 54.0525 48.4301 53.9965C48.4614 53.9693 48.7836 53.8603 49.1461 53.7543C50.2178 53.4409 50.8851 53.0794 51.466 52.4976C52.3802 51.5819 52.8154 50.5354 52.875 49.109C52.9379 47.6047 52.6248 46.6915 51.7428 45.8069C51.1511 45.2135 50.3878 44.8035 49.5567 44.6328C48.8388 44.4853 47.349 44.3776 46.3016 44.3976C45.8247 44.4066 44.2559 44.4227 42.8154 44.4333ZM56.1239 44.6079C56.1061 44.6952 56.0419 45.6192 55.9813 46.6612C55.8351 49.1775 55.0725 58.9674 54.9019 60.5197C54.8276 61.1951 54.7667 61.8188 54.7663 61.9056L54.7657 62.0634H56.3267H57.8877L57.8878 61.3442C57.888 60.3743 58.3853 51.8852 58.5857 49.4329C58.6978 48.0605 58.7161 48.0228 58.8925 48.8014C58.9756 49.168 59.3198 50.4311 59.6576 51.6082C59.9952 52.7853 60.7592 55.6114 61.3551 57.8884L62.4386 62.0284L64.1036 62.0471L65.7686 62.0659L65.9302 61.5559C66.2052 60.6882 70.652 48.0772 70.698 48.0347C70.7746 47.9638 70.515 59.8232 70.4055 61.3987L70.3615 62.0321L71.9989 62.0382L73.6364 62.0443L73.6371 60.0365C73.6384 56.3063 73.8271 47.5478 73.9559 45.2394L74 44.4491L71.5178 44.4675L69.0355 44.486L68.746 45.4333C68.5866 45.9543 67.9309 47.7541 67.2887 49.4329C66.6465 51.1117 65.7386 53.6063 65.271 54.9763C64.8034 56.3464 64.4036 57.42 64.3825 57.3621C64.3613 57.3042 64.1224 56.3569 63.8515 55.257C63.2222 52.7018 62.9409 51.6699 62.2254 49.2926C61.3851 46.5003 61.3574 46.3999 61.152 45.3982L60.9651 44.486L58.5607 44.4675L56.1564 44.4491L56.1239 44.6079Z" fill="#57C3B7"/>
</svg>
