<svg width="80" height="81" viewBox="0 0 80 81" fill="none" xmlns="http://www.w3.org/2000/svg">
<path fill-rule="evenodd" clip-rule="evenodd" d="M24.1449 13.3335C20.9392 13.3614 18.2304 13.3888 18.1255 13.3944L17.9347 13.4045V14.518V15.6314L20.8663 15.6496L23.798 15.6678L23.8155 28.8817L23.833 42.0956H16.0267H8.22041V53.5754V65.0552L7.82143 64.9906C7.45242 64.9309 6.76736 64.9573 6.22551 65.0522L6 65.0918V66.1982V67.3047H40H74V66.1557V65.0066H73.1707C72.7147 65.0066 72.1838 64.9727 71.9912 64.9312L71.6408 64.8558V53.4757V42.0956H63.8347H56.0286V28.8643V15.633H59.0469H62.0653V14.5288V13.4247L59.8276 13.3797C56.363 13.31 30.6667 13.2768 24.1449 13.3335ZM53.7388 15.7527C53.7847 15.7943 53.7682 32.1951 53.7039 50.2955L53.6522 64.8673H50.0873H46.5224V58.9133V52.9592H40H33.4776V58.9133V64.8673H29.8347H26.1918V40.2458V15.6243L39.948 15.6727C47.5139 15.6994 53.7197 15.7354 53.7388 15.7527ZM36.9999 30.1352L36.9816 32.5203L34.6051 32.5386L32.2286 32.5569V36.1424V39.7279H34.6224H37.0163V42.0956V44.4633H40.5898H44.1633V42.0956V39.7279H46.5224H48.8816V36.1415V32.5551H46.5224H44.1633V30.1526V27.7501H40.5907H37.0181L36.9999 30.1352ZM41.7347 32.5203V34.9228H44.1286H46.5224V36.1058V37.2887L44.1459 37.307L41.7694 37.3253L41.7511 39.7105L41.7329 42.0956H40.5542H39.3755V39.6931V37.2905H36.9816H34.5878V36.1067V34.9228H36.9816H39.3755V32.5203V30.1178H40.5551H41.7347V32.5203ZM23.8155 54.6827L23.8331 64.8673H17.241H10.649V54.665V44.4626L17.2235 44.4803L23.798 44.4981L23.8155 54.6827ZM69.3049 47.1966C69.3302 48.6616 69.3509 53.2368 69.351 57.3638L69.351 64.8673H62.6898H56.0286L56.0372 58.0602C56.0497 48.3291 56.1037 44.6853 56.2367 44.601C56.3003 44.5607 58.856 44.5347 62.8 44.534L69.2591 44.5329L69.3049 47.1966ZM13.2874 47.1078C13.2121 47.1834 13.1296 47.3286 13.1041 47.4305C13.0551 47.6264 13.1246 49.106 13.1875 49.2083C13.2079 49.2413 15.0649 49.2683 17.3143 49.2683H21.4041V48.1648V47.0613L20.5605 47.0158C20.0966 46.9907 18.3012 46.9703 16.5707 46.9703C13.5305 46.9703 13.4198 46.9749 13.2874 47.1078ZM58.5959 48.1193V49.2683H62.7245H66.8531V48.1651V47.0619L65.593 47.0161C64.8999 46.9909 63.0421 46.9703 61.4644 46.9703H58.5959V48.1193ZM13.1922 51.8771C13.1708 51.9331 13.1319 52.4138 13.1057 52.9453C13.0609 53.8524 13.066 53.9149 13.1892 53.9647C13.2614 53.9939 15.1392 54.0348 17.3622 54.0558L21.4041 54.0938V52.9346V51.7753H17.3176C13.7961 51.7753 13.2258 51.7894 13.1922 51.8771ZM58.5959 52.9238V54.0734H62.7262H66.8565L66.8375 52.9418L66.8184 51.8101L62.7071 51.7922L58.5959 51.7742V52.9238ZM44.1633 60.0971V64.8673H39.9306H35.698V60.0971V55.3269H39.9306H44.1633V60.0971ZM13.1143 57.6424C13.1384 58.2265 13.1702 58.7435 13.185 58.7914C13.2062 58.8597 14.0918 58.8784 17.3081 58.8784H21.4041V57.7294V56.5804H17.2373H13.0706L13.1143 57.6424ZM58.5959 57.73V58.8796L62.7071 58.8616L66.8184 58.8436L66.8375 57.712L66.8565 56.5804H62.7262H58.5959V57.73Z" fill="#57C3B7"/>
</svg>
