<svg width="80" height="81" viewBox="0 0 80 81" fill="none" xmlns="http://www.w3.org/2000/svg">
<path fill-rule="evenodd" clip-rule="evenodd" d="M63.2911 6.78814C61.2763 7.70356 59.7888 9.9906 59.8215 12.1237C59.8276 12.5071 59.9963 13.2801 60.1968 13.8414L60.5613 14.8616L55.9318 19.4558L51.3023 24.0496L50.4657 23.676C48.7822 22.9242 45.8424 23.4886 44.7846 24.7668C44.2701 25.3881 44.0298 25.3655 40.4106 24.3525L37.2781 23.4758L37.1166 22.4667C36.8523 20.8134 35.5048 18.9803 34.0287 18.266C31.3226 16.9563 27.8917 18.0125 26.5819 20.5589C25.9678 21.7528 25.7383 23.9847 26.1161 25.0897C26.2762 25.5584 25.6142 26.1978 21.9591 29.1033L17.6115 32.5592L16.6399 32.2082C13.4843 31.0672 10.1446 32.6551 9.09239 35.7968C8.60131 37.2638 8.71062 38.3747 9.50316 39.9649C10.067 41.0964 10.5545 41.6148 11.6644 42.2636C12.9154 42.995 13.315 43.0896 14.8109 43.007C17.0811 42.8821 18.5237 41.9117 19.546 39.8221C20.1816 38.5236 20.2557 38.1129 20.0817 36.8606C19.9705 36.0609 19.8595 35.1853 19.8349 34.9146C19.8054 34.5878 21.1872 33.3163 23.9454 31.1319L28.1006 27.8413L29.0936 28.3476C31.1525 29.3972 34.5589 28.6747 35.8623 26.9116L36.4259 26.1493L39.5417 27.0438L42.6574 27.938L42.8705 29.415C43.2406 31.9806 44.805 33.7817 47.2225 34.4249C51.398 35.5361 55.4826 30.9961 53.8412 27.0683L53.4521 26.137L58.0462 21.5342L62.6405 16.9317L63.9431 17.3346C68.4117 18.7163 72.66 13.959 70.7126 9.75359C69.3585 6.82885 66.0829 5.51998 63.2911 6.78814ZM66.8152 9.49315C67.9739 10.0924 68.5821 11.5836 68.1735 12.8219C67.7926 13.9758 66.828 14.6333 65.5159 14.6333C64.1436 14.6333 63.4599 14.2075 62.9774 13.0534C62.4289 11.7403 62.8823 10.3297 64.0893 9.59353C65.1554 8.94356 65.7125 8.9232 66.8152 9.49315ZM33.3742 21.2969C34.1227 21.9656 34.2789 22.3069 34.2789 23.2773C34.2789 24.2476 34.1227 24.5889 33.3742 25.2576C32.7451 25.82 32.1759 26.0656 31.5027 26.0656C30.8296 26.0656 30.2604 25.82 29.6313 25.2576C28.8828 24.5889 28.7266 24.2476 28.7266 23.2773C28.7266 22.3069 28.8828 21.9656 29.6313 21.2969C30.8527 20.2053 32.1528 20.2053 33.3742 21.2969ZM49.7778 26.4886C52.3849 27.8368 51.4778 31.6982 48.5538 31.6982C47.2278 31.6982 46.4425 31.2018 45.9665 30.0625C45.418 28.7495 45.8714 27.3388 47.0783 26.6027C48.1386 25.9563 48.7022 25.9324 49.7778 26.4886ZM60.3655 29.4117C59.8178 29.9593 59.8078 30.3411 59.8078 50.7428V71.5163H57.0191H54.2304V59.2474C54.2304 47.3502 54.2134 46.9615 53.6727 46.4208C53.1602 45.9083 52.7433 45.8632 48.5137 45.8632C44.2841 45.8632 43.8672 45.9083 43.3546 46.4208C42.8139 46.9615 42.7969 47.3502 42.7969 59.2474V71.5163H40.0082H37.2195V56.3628C37.2195 42.0364 37.1916 41.1843 36.7095 40.7479C36.277 40.3564 35.4786 40.2864 31.4542 40.2864C27.2113 40.2864 26.6602 40.3405 26.2475 40.7964C25.83 41.2576 25.786 42.7471 25.786 56.4113V71.5163H22.9973H20.2086V63.4732C20.2086 56.0352 20.1701 55.3953 19.6986 54.9686C19.266 54.5771 18.4676 54.5072 14.4433 54.5072C10.2003 54.5072 9.64929 54.5613 9.23657 55.0172C8.8297 55.4666 8.77504 56.4738 8.77504 63.5217V71.5163H7.81881C6.19356 71.5163 5.42305 72.872 6.49642 73.8432C6.96491 74.267 9.69419 74.3047 40.0567 74.3047C71.721 74.3047 73.1262 74.2832 73.5685 73.7947C74.5312 72.7312 73.8 71.5163 72.1976 71.5163H71.2414V50.7428C71.2414 30.3411 71.2313 29.9593 70.6836 29.4117C70.1711 28.8992 69.7542 28.854 65.5246 28.854C61.295 28.854 60.8781 28.8992 60.3655 29.4117ZM68.3849 51.6491L68.3133 71.3769H65.5246H62.7359L62.6642 51.6491L62.5929 31.9212H65.5246H68.4563L68.3849 51.6491ZM16.2626 35.4143C17.7392 36.6568 17.602 38.7048 15.9651 39.8511C14.0861 41.1672 11.2084 39.192 11.7059 36.9275C11.9519 35.8074 13.3312 34.7096 14.4918 34.7096C15.083 34.7096 15.732 34.9678 16.2626 35.4143ZM34.2914 57.2955V71.3769H31.5027H28.7141L28.6416 57.5744C28.6017 49.983 28.6307 43.6104 28.7063 43.4133C28.8083 43.1467 29.5451 43.0751 31.5677 43.1345L34.2914 43.2142V57.2955ZM51.3751 60.1536L51.3023 71.3769H48.5137H45.725L45.6522 60.1536L45.5791 48.9304H48.5137H51.4482L51.3751 60.1536ZM17.355 64.3362L17.2805 71.3769H14.4918H11.7032L11.6287 64.3362L11.5542 57.2955H14.4918H17.4294L17.355 64.3362Z" fill="#57C3B7"/>
</svg>
