<svg width="80" height="81" viewBox="0 0 80 81" fill="none" xmlns="http://www.w3.org/2000/svg">
<path fill-rule="evenodd" clip-rule="evenodd" d="M30.6507 0.427938C24.2054 1.44588 19.2525 6.54629 18.3886 13.0549C18.1249 15.0417 18.2333 15.6573 18.9212 16.0799C19.2037 16.2535 19.3903 16.2645 22.0559 16.2648L24.8902 16.2652V16.9525V17.6397L23.7099 17.6723C22.5605 17.7039 22.5114 17.7139 21.8289 18.0539C20.6513 18.6406 19.8483 19.7259 19.6414 21.0103C19.5156 21.7919 19.5173 24.2557 19.6441 24.9554C19.7998 25.8144 20.1997 26.5606 20.8282 27.1645C21.6954 27.9982 22.6714 28.337 24.2099 28.3386L24.8662 28.3393L24.9167 30.6381C24.972 33.1532 25.087 33.9431 25.6392 35.6039C26.7407 38.917 29.1641 41.9289 32.1026 43.6368L32.817 44.052V45.5234V46.9948L27.9549 47.0343C22.7924 47.0764 22.8413 47.0726 21.2758 47.5625C17.9925 48.5903 15.1131 51.2838 13.8266 54.531C13.118 56.3195 13.0003 57.1888 13.0001 60.6345L13 63.5337L13.2851 63.8609C13.446 64.0456 13.7269 64.2354 13.9303 64.2968L14.2904 64.4055V71.8766C14.2904 80.0454 14.2686 79.7073 14.8234 80.1189C15.0724 80.3036 15.2188 80.3047 39.4533 80.3047C63.6879 80.3047 63.8343 80.3036 64.0832 80.1189C64.6381 79.7073 64.6163 80.0454 64.6163 71.8766V64.4055L64.9764 64.2968C65.4729 64.1469 65.8777 63.6589 65.9591 63.112C66.07 62.367 65.9368 57.8181 65.78 56.9923C65.2658 54.2854 64.0977 52.1097 62.1727 50.2735C60.383 48.5664 57.9959 47.4182 55.5834 47.1037C55.2032 47.0541 52.9116 47.0123 50.4909 47.0107L46.0897 47.0079V45.5324V44.0569L46.758 43.6598C47.9699 42.9394 48.6111 42.4322 49.7409 41.3001C51.8153 39.2213 53.1059 36.8191 53.7467 33.8434C53.9048 33.1094 53.9512 32.4992 53.9904 30.6381L54.0389 28.3393L54.6959 28.3386C56.2976 28.3369 57.3381 27.9526 58.1966 27.0455C58.7951 26.4133 59.1294 25.7379 59.2671 24.8827C59.3892 24.1247 59.388 21.773 59.2652 21.0103C59.0585 19.7263 58.2553 18.6404 57.0789 18.0546C56.4091 17.721 56.3298 17.7041 55.2209 17.659L54.0626 17.6119L54.0054 15.4293C53.9662 13.931 53.9006 13.0307 53.7961 12.5579C53.2952 10.2906 52.2887 8.35695 50.7659 6.73576C48.5186 4.34359 45.4675 2.98432 42.3423 2.9832C41.2795 2.98283 41.2397 2.97531 40.8359 2.70095C39.1455 1.55214 37.0714 0.755612 34.9145 0.426916C33.8419 0.263543 31.6884 0.264007 30.6507 0.427938ZM34.8715 3.12206C36.529 3.41332 37.9539 3.99836 39.4962 5.02095L40.4147 5.62995L41.8466 5.63636C42.8538 5.64091 43.4946 5.69125 44.0074 5.80605C46.8029 6.43196 49.1567 8.28033 50.4052 10.8304C50.7943 11.625 51.2514 13.0361 51.2514 13.4428V13.6646H36.1352H21.019L21.021 13.4092C21.0243 12.9837 21.3539 11.6221 21.6527 10.7995C22.8203 7.58541 25.4804 4.90281 28.7153 3.67719C29.2908 3.4592 30.1377 3.23397 30.9274 3.08899C31.6862 2.94967 34.0007 2.96909 34.8715 3.12206ZM51.3435 22.1165C51.3435 25.3347 51.3125 27.9681 51.2744 27.9685C51.2363 27.9688 48.5624 27.4381 45.3323 26.7891L39.4592 25.6091L33.5803 26.7899C30.3469 27.4394 27.6704 27.9701 27.6323 27.9693C27.5942 27.9685 27.5632 25.3347 27.5632 22.1165V16.2652H39.4533H51.3435V22.1165ZM24.8902 22.9611V25.6632L23.9915 25.6314C23.2411 25.6047 23.0453 25.5652 22.8046 25.3923C22.2933 25.0248 22.2172 24.7231 22.2172 23.0661C22.2172 21.2933 22.2537 21.0723 22.6045 20.7189C22.9465 20.3743 23.2822 20.2778 24.1758 20.2673L24.8902 20.2589V22.9611ZM33.7687 20.3601C33.437 20.4579 32.9847 20.8983 32.8953 21.2106C32.8623 21.3257 32.8313 22.1241 32.8262 22.9848C32.816 24.7283 32.8853 25.0194 33.3985 25.3877C33.7935 25.6711 34.5115 25.6734 34.9025 25.3923C35.4451 25.0023 35.508 24.7202 35.4741 22.8301C35.4412 20.991 35.4081 20.8611 34.8908 20.5423C34.5274 20.3183 34.1296 20.2536 33.7687 20.3601ZM44.3675 20.3603C43.9768 20.4755 43.5481 20.9207 43.4755 21.2866C43.4432 21.4493 43.4167 22.25 43.4167 23.0661C43.4167 24.7205 43.4932 25.0253 44.0001 25.389C44.3915 25.6698 45.115 25.6698 45.5064 25.389C46.0445 25.0029 46.1078 24.7175 46.0739 22.8301C46.041 20.991 46.0079 20.8611 45.4906 20.5423C45.1269 20.3181 44.7294 20.2536 44.3675 20.3603ZM56.0632 20.5207C56.5978 20.8536 56.6895 21.2179 56.6895 23.0099C56.6895 24.728 56.617 25.0222 56.1021 25.3923C55.8614 25.5652 55.6656 25.6047 54.9152 25.6314L54.0165 25.6632V23.023C54.0165 21.5709 54.0476 20.3507 54.0856 20.3114C54.1237 20.2722 54.5096 20.2568 54.9434 20.2772C55.5527 20.3059 55.8073 20.3613 56.0632 20.5207ZM40.0064 28.4411C40.2345 28.4946 40.8359 28.6168 41.3429 28.7127C41.8498 28.8085 44.2259 29.2862 46.6231 29.7741C49.0203 30.2621 51.0694 30.6613 51.1766 30.6613C51.3676 30.6613 51.3703 30.6843 51.3138 31.799C51.0454 37.0895 47.1357 41.6089 41.8437 42.7459C40.4832 43.0381 38.4115 43.0409 37.0834 42.7522C35.9103 42.4972 34.8456 42.1067 33.8309 41.5592C30.1763 39.5877 27.6518 35.5959 27.6181 31.7356L27.6093 30.7201L33.4161 29.5393C36.6098 28.8898 39.3059 28.3552 39.4073 28.3512C39.5086 28.3471 39.7782 28.3876 40.0064 28.4411ZM37.2412 45.4831C38.8139 45.7694 41.2443 45.6534 42.9328 45.2113L43.4167 45.0846V46.9555C43.4167 49.0072 43.3243 49.6004 42.8878 50.3512C42.5266 50.9723 41.8311 51.6061 41.1329 51.9501C40.5413 52.2416 40.4654 52.2555 39.4533 52.2547C38.4437 52.254 38.364 52.2395 37.7738 51.9493C37.076 51.6063 36.3803 50.9728 36.0189 50.3512C35.5824 49.6004 35.49 49.0072 35.49 46.9555V45.0846L35.9739 45.2125C36.24 45.2829 36.8103 45.4046 37.2412 45.4831ZM33.079 50.1425C33.1427 50.3851 33.3635 50.9359 33.5695 51.3664C34.0595 52.3902 35.2893 53.6701 36.2734 54.1805C37.493 54.8129 38.0579 54.9491 39.4533 54.9475C40.5054 54.9462 40.7974 54.9126 41.3429 54.7305C42.5342 54.3326 43.2146 53.9083 44.1128 53.0033C45.0213 52.0878 45.4883 51.3226 45.777 50.2761L45.9381 49.6923L50.7838 49.7231C55.4427 49.7529 55.6574 49.7619 56.3511 49.9579C59.4283 50.8275 61.8676 53.1305 62.8157 56.0613C63.1869 57.2088 63.3251 58.2986 63.3255 60.0805L63.3259 61.6826L58.5099 61.683C53.8989 61.6833 53.6814 61.691 53.3993 61.8643C52.7308 62.2751 52.7773 61.7033 52.7261 70.1304L52.68 77.7041L39.4303 77.7276L26.1806 77.7512L26.1802 70.2045C26.1799 62.8379 26.1755 62.6506 25.9967 62.3551C25.896 62.1886 25.6784 61.9694 25.5132 61.8679C25.2236 61.6899 25.0399 61.6833 20.3968 61.683L15.5808 61.6826L15.5812 60.0805C15.5816 58.3 15.7196 57.2106 16.0903 56.0613C17.1019 52.9258 19.8404 50.4992 23.1051 49.8456C23.5849 49.7494 24.854 49.7166 28.3506 49.71L32.9631 49.7013L33.079 50.1425ZM23.5774 71.0401L23.5537 77.7041L20.2585 77.7285L16.9634 77.7529V71.0645V64.3761H20.2822H23.601L23.5774 71.0401ZM61.9433 71.0633V77.7505H58.6712H55.3991V71.0633V64.3761H58.6712H61.9433V71.0633Z" fill="#57C3B7"/>
</svg>
