<svg width="80" height="81" viewBox="0 0 80 81" fill="none" xmlns="http://www.w3.org/2000/svg">
<path fill-rule="evenodd" clip-rule="evenodd" d="M60.2954 11.5033L55.1007 16.7018L55.148 18.7102C55.1824 20.1686 55.171 20.93 55.1063 21.4902L55.0174 22.2617L50.2154 26.9752C47.5743 29.5675 43.7588 33.3167 41.7366 35.3065L38.0599 38.9244L37.2558 38.9256C35.7368 38.9279 34.9346 39.2279 34.0136 40.138C33.3552 40.7885 33.0036 41.3742 32.8045 42.1517C32.293 44.1495 33.2204 46.2085 35.0368 47.1075C36.311 47.7382 37.654 47.7315 38.9478 47.088C39.9135 46.6077 40.6985 45.7497 41.082 44.7551C41.2093 44.4251 41.2347 44.1809 41.2637 43.0095L41.2973 41.6476L46.9677 35.9955C54.5493 28.4383 57.3109 25.7423 57.6052 25.6105C57.8103 25.5187 58.2945 25.498 60.6966 25.4782L63.5449 25.4548L68.7724 20.2376C71.6476 17.3682 74 14.9969 74 14.9682C74 14.9395 72.4033 14.916 70.4518 14.916H66.9036L66.14 14.2048L65.3764 13.4935L65.4139 13.1119C65.4965 12.2713 65.605 7.15685 65.549 6.74197L65.49 6.30469L60.2954 11.5033ZM34.5414 12.5298C32.2537 12.8035 31.1887 12.9891 29.5743 13.3956C25.4907 14.4236 21.6206 16.2923 18.1119 18.9299C16.0679 20.4666 14.0699 22.4265 12.5129 24.4223C10.3244 27.2276 8.25182 31.2649 7.2054 34.7611C6.43888 37.3222 6.09327 39.5959 6.01359 42.602C5.86874 48.0654 6.87681 52.6398 9.28302 57.4387C11.4922 61.8446 14.4961 65.4408 18.4648 68.4313C21.6543 70.8344 25.5522 72.6528 29.7939 73.7159C32.0033 74.2698 32.8691 74.331 38.0149 74.2971L42.0094 74.2708L42.9632 74.0834C48.1863 73.057 53.0543 70.8215 57.0495 67.615C59.2448 65.8531 60.8422 64.1027 62.4306 61.7185C65.5818 56.9887 67.3577 52.2744 67.9328 47.1123C68.1072 45.5459 68.1096 41.0362 67.9367 39.6183C67.6813 37.524 67.2853 35.6848 66.7034 33.8916C66.1786 32.274 65.7403 31.2188 64.4488 28.4641L64.1153 27.7529H61.6524H59.1894L59.3377 27.9784C62.1776 32.2959 63.7761 37.0948 63.9662 41.8734C64.0188 43.1958 63.9062 45.8857 63.7472 47.107C63.5417 48.684 62.9638 50.9334 62.3234 52.6485C60.9405 56.3519 58.861 59.544 55.9401 62.4471C51.5883 66.7724 46.2896 69.3327 40.1903 70.0574C38.7519 70.2282 35.2795 70.2276 33.8248 70.0563C29.9645 69.6016 26.5815 68.4752 23.3393 66.5652C21.2592 65.3399 19.5187 63.9605 17.6938 62.0915C13.9821 58.2901 11.5098 53.512 10.5784 48.3401C10.2435 46.481 10.1965 45.8664 10.1949 43.3306C10.1934 40.8572 10.2182 40.4964 10.5117 38.7163C11.7568 31.1648 16.5051 24.2672 23.2179 20.2589C26.5082 18.2942 29.9763 17.1394 33.8814 16.7081C35.0111 16.5833 39.0375 16.584 40.0642 16.7091C42.5179 17.0082 44.9392 17.649 47.1154 18.5753C48.3266 19.0909 50.4884 20.2101 51.6309 20.9129L52.7076 21.5754L52.7601 21.1773C52.7889 20.9584 52.8045 19.7987 52.7948 18.6003L52.7771 16.4211L51.3882 15.7671C47.7045 14.0326 44.0443 12.943 40.8284 12.6238C40.0746 12.549 35.0136 12.4733 34.5414 12.5298ZM35.0972 26.2035C33.0174 26.4119 31.0121 27.0017 29.1368 27.9567C25.9353 29.587 23.1363 32.4542 21.5122 35.7672C20.7093 37.4049 20.1335 39.3268 19.9553 40.9632C19.8602 41.8372 19.8583 44.6087 19.9523 45.457C20.2767 48.3862 21.6272 51.5576 23.5971 54.0164C24.1409 54.6951 25.4268 55.9778 26.1703 56.5832C27.7146 57.8405 29.6496 58.9046 31.5195 59.525C33.3035 60.1169 34.9198 60.3659 36.9724 60.3649C39.8707 60.3635 42.2148 59.8323 44.6492 58.6251C48.767 56.5832 52.0985 52.6877 53.4027 48.3898C54.4944 44.7925 54.3352 40.3007 53.0072 37.2244C52.5529 36.1721 51.8129 34.6917 51.7413 34.6917C51.6996 34.6918 51.0104 35.3259 50.2094 36.1008L48.7533 37.5099L49.1124 38.408C50.5065 41.8952 50.3898 45.5204 48.7741 48.9118C47.5197 51.545 45.2107 53.8194 42.4956 55.0963C38.0356 57.1939 32.7387 56.5261 28.8449 53.3754C28.2198 52.8696 27.2498 51.8964 26.7519 51.2756C25.4222 49.6173 24.4319 47.4185 24.077 45.3362C23.9345 44.5001 23.9158 42.1709 24.0444 41.2836C24.5949 37.4872 27.0918 33.8424 30.452 31.9302C32.276 30.8922 33.9023 30.397 35.9858 30.2452C38.184 30.085 40.0714 30.388 42.0943 31.2261L42.735 31.4916L44.161 30.0245C44.9453 29.2177 45.587 28.5348 45.587 28.5072C45.587 28.357 43.6022 27.4448 42.3115 27.0018C41.289 26.6509 39.8923 26.321 39.0422 26.2295C38.427 26.1633 35.679 26.1452 35.0972 26.2035Z" fill="#57C3B7"/>
</svg>
