<svg width="80" height="81" viewBox="0 0 80 81" fill="none" xmlns="http://www.w3.org/2000/svg">
<path fill-rule="evenodd" clip-rule="evenodd" d="M26.5168 6.36116C23.9193 6.67243 21.6385 8.57666 20.8595 11.0846C20.541 12.1099 20.5545 11.8111 20.5353 18.2678L20.5174 24.2516L20.1871 24.3195C18.3805 24.6907 16.653 26.1464 15.9486 27.8909C15.6974 28.513 11.1321 46.8942 11.0399 47.6551C10.9554 48.3519 10.9566 48.3645 11.5438 52.8555C11.9748 56.1518 12.0389 56.7526 12.0371 57.4823C12.0342 58.6315 11.8732 59.4925 11.4557 60.5922C11.2195 61.2141 11.1899 61.4543 11.2976 61.8774C11.4642 62.5326 11.9236 63.0021 12.5452 63.1523C13.1228 63.2919 13.7818 63.1013 14.1844 62.6782C14.5929 62.249 15.118 60.6896 15.3594 59.1885C15.4049 58.9062 15.433 58.2296 15.4318 57.4534C15.4297 56.1846 15.4283 56.1705 14.9304 52.4483C14.6559 50.3952 14.4312 48.5407 14.4312 48.3272C14.4312 48.0088 14.8446 46.2737 16.7298 38.6778C18.283 32.4196 19.0789 29.312 19.1842 29.0939C19.4051 28.6364 19.8867 28.1624 20.3735 27.9234C20.7629 27.7322 20.797 27.726 21.4656 27.726C22.1358 27.726 22.1673 27.7317 22.5565 27.9247C23.4961 28.3907 24.107 29.4495 24.003 30.4317C23.9854 30.5977 23.4479 33.31 22.8084 36.4592C22.0135 40.3733 21.6467 42.2963 21.6487 42.537C21.6529 43.0253 21.799 43.3197 22.3227 43.8956C23.4798 45.168 24.5809 46.8898 25.2416 48.46C25.9575 50.1612 26.2998 51.7047 26.4025 53.6941C26.4307 54.2409 26.4663 54.4505 26.5705 54.6823C26.9276 55.4767 27.8053 55.8636 28.6489 55.5986C28.9101 55.5166 29.0587 55.4196 29.3116 55.1662C29.7681 54.7087 29.8471 54.4216 29.7984 53.3984C29.6133 49.51 28.1432 45.6272 25.6994 42.5721L25.2047 41.9535L25.6186 39.8715C25.8463 38.7263 26.3438 36.2538 26.7242 34.3771C27.3935 31.0744 27.4158 30.9406 27.4188 30.2129C27.4223 29.354 27.3273 28.8114 27.0369 28.0301C26.5342 26.6781 25.4504 25.4713 24.1454 24.8103C23.8266 24.6488 23.7883 24.6118 23.8241 24.4993C23.8465 24.4291 23.886 24.2805 23.912 24.1691C23.9379 24.0578 23.9598 21.4329 23.9605 18.3361C23.962 12.1325 23.9474 12.4041 24.3227 11.6189C24.5695 11.1026 25.2869 10.3804 25.8032 10.1286C26.6045 9.73776 25.3426 9.76547 41.5913 9.78201L56.3144 9.79704L56.6717 9.93197C57.6443 10.2992 58.3967 11.0612 58.7695 12.0566C58.8945 12.3902 58.8985 12.4703 58.9147 14.966L58.9313 17.5323L58.0505 18.4361C57.5661 18.9332 57.0618 19.4878 56.9297 19.6686C55.4907 21.6386 55.4184 24.2857 56.7482 26.3038C57.0982 26.8349 57.4434 27.2224 57.9507 27.6531L58.2665 27.9213L57.6301 28.5755C56.9028 29.3233 56.7276 29.5649 56.3703 30.3128C55.9432 31.2069 55.8612 31.6058 55.8622 32.7866C55.8631 33.7205 55.8752 33.839 56.0193 34.3193C56.2108 34.9576 56.4851 35.5542 56.8088 36.0364C57.0618 36.4132 57.7921 37.1878 58.0928 37.3982L58.2637 37.5178L57.6616 38.1455C56.7603 39.0853 56.356 39.7542 56.0166 40.8671C55.8742 41.334 55.8614 41.4572 55.8584 42.3873C55.8555 43.2728 55.8717 43.4609 55.9883 43.891C56.3216 45.1207 57.1009 46.2968 58.0884 47.0602L58.2548 47.1888L57.6477 47.8159C56.7671 48.7256 56.3398 49.4352 56.0235 50.5132C55.8359 51.1528 55.7702 52.314 55.8823 53.0135C56.1526 54.7015 57.2182 56.2632 58.654 57.0753L58.9841 57.262V57.9463C58.9841 59.1755 58.8415 59.8114 58.4179 60.4693C57.9924 61.1304 57.3813 61.615 56.6302 61.8872L56.257 62.0224L45.291 62.0513L34.325 62.0802L34.0667 62.2166C33.7134 62.4031 33.4534 62.6618 33.2738 63.0056C33.1475 63.2474 33.1224 63.3713 33.121 63.7612C33.1196 64.1679 33.1415 64.2713 33.2926 64.5692C33.4784 64.9357 33.8471 65.267 34.2289 65.4106C34.4009 65.4753 35.5688 65.4955 40.5482 65.5202L46.6566 65.5504L46.2895 66.0417C44.5653 68.3502 41.7761 70.1915 39.0042 70.851C38.7222 70.9182 38.4016 71.0407 38.2446 71.1414C37.1402 71.8499 37.2326 73.5365 38.4075 74.1156C38.9007 74.3586 39.3451 74.3662 40.1661 74.1454C44.491 72.9827 48.2144 70.0448 50.3799 66.0863L50.6879 65.5234L53.4506 65.5224C55.6831 65.5216 56.311 65.5043 56.7229 65.4319C59.0175 65.0288 60.968 63.4653 61.8557 61.3174C62.1926 60.5019 62.3219 59.8659 62.363 58.821L62.4002 57.8751L62.9235 57.7421C64.2744 57.3984 64.7803 57.0731 66.2952 55.5738C66.9541 54.9217 67.6456 54.1847 67.8319 53.9362C68.2551 53.3714 68.5961 52.6585 68.7881 51.9371C68.9163 51.4553 68.9365 51.2605 68.9386 50.4842C68.9408 49.6866 68.9242 49.5261 68.7878 49.0282C68.7036 48.7203 68.5568 48.2957 68.4617 48.0845C68.1086 47.3001 67.3999 46.3934 66.7834 45.9376L66.5003 45.7282L67.0945 45.1132C67.4213 44.775 67.7936 44.3421 67.9218 44.1513C68.9886 42.5622 69.2457 40.6732 68.6359 38.9038C68.3243 37.9994 67.635 37.0011 66.909 36.4029L66.5023 36.0676L67.0955 35.4537C67.4218 35.1161 67.7936 34.6836 67.9218 34.4928C69.3445 32.3736 69.2858 29.6682 67.7735 27.6536C67.4553 27.2297 66.8582 26.6485 66.5774 26.4893C66.4902 26.4399 66.5621 26.3441 67.1114 25.7778C67.8438 25.0228 68.0823 24.7067 68.3962 24.0747C69.2031 22.4495 69.2012 20.5027 68.391 18.8802C67.3586 16.8127 65.1215 15.5225 62.8739 15.6982L62.3715 15.7374L62.3713 14.1553C62.3711 13.0438 62.3461 12.4179 62.2871 12.0513C62.0711 10.7102 61.4716 9.48982 60.5294 8.47354C59.4591 7.31897 57.9506 6.55647 56.3446 6.35809C55.7523 6.28493 27.1283 6.28788 26.5168 6.36116ZM64.213 19.3571C65.1425 19.8041 65.7104 20.8715 65.5393 21.8499C65.4175 22.5462 65.2694 22.768 64.1938 23.865C63.6494 24.4202 63.0938 24.9516 62.959 25.0458C62.2367 25.5508 61.153 25.5867 60.4057 25.1303C59.8936 24.8175 59.5554 24.3898 59.3876 23.8426C59.1592 23.0977 59.2928 22.3194 59.7556 21.6993C59.8947 21.5129 60.4191 20.9556 60.921 20.4608C62.1117 19.2871 62.4148 19.125 63.3518 19.1608C63.7588 19.1763 63.9078 19.2103 64.213 19.3571ZM40.8415 22.0084C40.7625 22.02 40.5042 22.0584 40.2673 22.0937C39.3923 22.2241 38.308 22.6729 37.4873 23.2444C36.9957 23.5867 36.2405 24.3406 35.8558 24.8729C35.0272 26.0196 34.5834 27.4282 34.5834 28.9116C34.5834 29.7094 34.6948 30.4179 34.9328 31.1334C35.2157 31.9839 35.7461 32.9118 36.2658 33.4653C36.3624 33.5682 36.4303 33.661 36.4167 33.6714C36.403 33.6818 36.1925 33.8137 35.9488 33.9644C33.8857 35.2403 32.2384 37.3446 31.479 39.6744C31.1265 40.7559 31.0018 41.5118 30.9981 42.5897C30.9945 43.6652 31.0384 43.8013 31.5337 44.2498C32.2462 44.8951 33.2998 44.8259 33.9414 44.0916C34.2258 43.7662 34.3324 43.4454 34.3814 42.7675C34.5086 41.0103 35.1555 39.5253 36.3324 38.2893C37.4154 37.152 38.7498 36.4322 40.2696 36.1657C41.0628 36.0266 42.395 36.0766 43.1429 36.2737C44.8171 36.7149 46.1478 37.6086 47.1425 38.9601C47.9664 40.0794 48.3995 41.2957 48.5294 42.855C48.6029 43.7377 48.8692 44.1987 49.4794 44.4994C50.5222 45.0134 51.7021 44.4211 51.9195 43.2745C51.9886 42.9097 51.8971 41.6696 51.7451 40.9125C51.5081 39.7321 50.9919 38.4121 50.3774 37.4157C49.5429 36.0624 48.2504 34.7672 46.9351 33.9661C46.694 33.8193 46.4877 33.6909 46.4768 33.6807C46.4659 33.6706 46.5846 33.5078 46.7407 33.3189C47.7535 32.093 48.3052 30.5388 48.3052 28.9116C48.3052 27.1169 47.6483 25.4552 46.4277 24.1621C45.3001 22.9676 43.8042 22.2153 42.1907 22.0313C41.69 21.9742 41.1363 21.9648 40.8415 22.0084ZM42.5377 25.6089C43.3751 25.8947 44.0625 26.4848 44.4699 27.2675C44.7475 27.8009 44.8604 28.2711 44.8604 28.8934C44.8604 29.8222 44.5681 30.565 43.9338 31.2483C43.4998 31.7157 43.103 31.9768 42.497 32.1936C42.1421 32.3205 41.9765 32.3444 41.4443 32.3454C40.9013 32.3466 40.7487 32.3244 40.3556 32.187C38.8352 31.6558 37.8937 30.2571 37.9897 28.672C38.0465 27.7335 38.4953 26.8269 39.1924 26.2425C40.1601 25.4312 41.3544 25.205 42.5377 25.6089ZM63.7429 28.8573C64.1827 28.9594 64.6057 29.2089 64.9212 29.5522C65.6235 30.3164 65.7745 31.279 65.3332 32.1793C65.1618 32.5289 64.9833 32.7349 64.0258 33.6871C63.2451 34.4635 62.8369 34.827 62.6466 34.9152C61.388 35.4986 60.0159 34.9693 59.43 33.6743C59.326 33.4447 59.3031 33.2891 59.3031 32.8155C59.3031 31.8575 59.3565 31.7651 60.6999 30.3982C61.3188 29.7685 61.9335 29.1893 62.0659 29.1112C62.5376 28.8326 63.2031 28.7319 63.7429 28.8573ZM64.1121 38.6255C64.552 38.7959 65.1064 39.3148 65.3216 39.7575C65.6635 40.4607 65.6534 41.2473 65.2938 41.9267C65.0362 42.4138 63.0981 44.3349 62.6531 44.5444C61.4517 45.11 60.069 44.6284 59.4892 43.4422C59.3127 43.0811 59.3 43.0157 59.3015 42.4753C59.3042 41.5149 59.3573 41.4229 60.7003 40.0556C61.3195 39.4253 61.9123 38.8557 62.0176 38.7899C62.5849 38.4355 63.4468 38.3678 64.1121 38.6255ZM64.1523 48.3245C64.6961 48.5834 65.0277 48.9071 65.284 49.4295C65.4932 49.856 65.5006 49.8918 65.5006 50.4825C65.5006 51.0605 65.4899 51.116 65.305 51.4976C65.1373 51.844 64.9581 52.0532 64.0419 52.973C62.8831 54.1363 62.6448 54.3043 61.9758 54.4296C60.4447 54.7165 58.9949 53.2853 59.263 51.7518C59.3845 51.0574 59.5359 50.8328 60.638 49.7133C61.1967 49.1457 61.7592 48.6073 61.8881 48.5169C62.5285 48.0671 63.4476 47.9891 64.1523 48.3245ZM37.9708 54.529C36.7406 54.9073 36.315 56.3741 37.1606 57.3215C37.3099 57.4889 37.5472 57.6739 37.7113 57.7509L37.9995 57.886L41.4495 57.8866L44.8995 57.8872L45.2508 57.7103C45.8304 57.4185 46.1253 56.9635 46.167 56.2967C46.203 55.7207 46.0477 55.3272 45.6345 54.9468C45.104 54.4583 45.2463 54.4742 41.4484 54.4799C39.6146 54.4826 38.0497 54.5047 37.9708 54.529Z" fill="#57C3B7"/>
</svg>
