<svg width="278" height="434" viewBox="0 0 278 434" fill="none" xmlns="http://www.w3.org/2000/svg">
<path d="M207.535 374.829L186.55 190.425L174.394 187.973L113.17 188.76L82.2145 195.537L70.4103 368.425L207.535 374.829Z" fill="#75A29D" stroke="black" stroke-width="0.5"/>
<mask id="path-2-inside-1_1365_23853" fill="white">
<path d="M97.6253 360.659L94.7324 281.801L99.5977 190.347C80.2682 195.333 53.7067 200.844 39.111 217.508C29.6435 228.267 20.3075 242.175 16.8887 264.481C12.8125 290.723 7.55275 340.846 4.13393 369.057"/>
</mask>
<path d="M97.6253 360.659L94.7324 281.801L99.5977 190.347C80.2682 195.333 53.7067 200.844 39.111 217.508C29.6435 228.267 20.3075 242.175 16.8887 264.481C12.8125 290.723 7.55275 340.846 4.13393 369.057" fill="white"/>
<path d="M94.7324 281.801L94.2328 281.819L94.2319 281.797L94.2331 281.775L94.7324 281.801ZM99.5977 190.347L99.4728 189.863L100.133 189.692L100.097 190.373L99.5977 190.347ZM39.111 217.508L39.4871 217.837L39.4864 217.838L39.111 217.508ZM16.8887 264.481L17.383 264.557L17.3828 264.558L16.8887 264.481ZM97.1256 360.677L94.2328 281.819L95.2321 281.783L98.1249 360.641L97.1256 360.677ZM94.2331 281.775L99.0984 190.32L100.097 190.373L95.2317 281.828L94.2331 281.775ZM99.7225 190.831C90.0392 193.329 78.6036 195.944 67.7549 200.016C56.9078 204.087 46.7067 209.595 39.4871 217.837L38.7349 217.178C46.111 208.757 56.4885 203.177 67.4035 199.08C78.3168 194.984 89.8267 192.351 99.4728 189.863L99.7225 190.831ZM39.4864 217.838C30.0617 228.549 20.7832 242.372 17.383 264.557L16.3945 264.406C19.8318 241.979 29.2253 227.985 38.7356 217.177L39.4864 217.838ZM17.3828 264.558C13.3082 290.79 8.05126 340.889 4.6303 369.117L3.63757 368.996C7.05423 340.804 12.3167 290.657 16.3947 264.405L17.3828 264.558Z" fill="black" mask="url(#path-2-inside-1_1365_23853)"/>
<path d="M61.2741 391.459L205.904 432.057C225.294 436.107 246.763 431.134 260.498 417.037C272.543 404.626 278.434 387.381 276.34 370.136L276.339 370.135C273.25 343.748 268.071 302.412 264.729 275.748C264.515 274.039 264.309 272.391 264.111 270.81L264.111 270.81C262.406 257.074 256.898 242.802 250.332 230.484C245.625 221.678 235.439 211.603 222.968 203.58C210.574 195.606 195.959 189.682 182.283 189.033L177.034 304.643L177.034 304.646L173.615 363.298L173.599 363.575L173.326 363.53L78.455 348.079L61.2741 391.459Z" fill="white" stroke="black" stroke-width="0.5"/>
<path d="M67.2637 282.335C72.4264 298.237 77.0076 312.302 80.5958 323.299C77.6193 313.957 73.8619 302.388 69.6278 289.352C68.8792 287.047 68.1156 284.696 67.3389 282.304L67.2637 282.335ZM67.6339 281.593C67.6381 281.606 67.6424 281.619 67.6466 281.632C69.5735 280.824 71.5186 280.015 73.4826 279.199C76.2384 278.054 79.0317 276.893 81.8649 275.695C81.8376 275.675 81.8101 275.656 81.7825 275.637C78.9534 276.833 76.161 277.993 73.4076 279.138C71.4585 279.948 69.5291 280.75 67.6201 281.55L67.6339 281.593ZM67.0868 281.807L67.0993 281.769L67.0743 281.782L67.0868 281.807ZM67.4048 265.586C67.4841 265.64 67.5636 265.694 67.6432 265.748L67.5534 265.479L67.4563 265.188C67.4285 265.282 67.4007 265.376 67.3728 265.471L67.3666 265.492L67.3566 265.512L67.3373 265.55L67.3762 265.57L67.391 265.577L67.4048 265.586ZM67.6092 264.671L67.7196 264.745C68.9058 260.642 70.0651 256.636 71.19 252.748C72.9542 246.651 74.6339 240.845 76.2003 235.419C73.6082 244.282 70.7145 254.158 67.6092 264.671ZM82.6363 275.37L82.8 275.305L82.6365 275.183L82.6363 275.182V275.37ZM81.8415 275.069C81.9685 275.015 82.0955 274.961 82.2227 274.907L79.0919 272.825C77.3855 271.689 75.6746 270.576 73.984 269.476C71.9487 268.151 69.9427 266.845 68.0091 265.544L67.9002 265.921C69.8311 267.22 71.8263 268.519 73.8544 269.839C75.5444 270.939 77.2572 272.053 78.9744 273.196C79.361 273.453 79.7659 273.712 80.173 273.974C80.7393 274.337 81.3099 274.703 81.8415 275.069Z" fill="#263238" stroke="black" stroke-width="0.5"/>
<g opacity="0.2">
<g opacity="0.2">
<g opacity="0.2">
<path opacity="0.2" d="M87.6553 344.92C79.0823 326.312 71.6674 307.145 65.5184 287.633C65.1896 286.517 64.8684 285.359 64.7723 284.24C64.6764 283.124 64.8066 282.068 65.3608 281.145C65.9806 280.157 66.9786 279.527 68.0942 278.921C68.2707 278.825 68.4504 278.73 68.6318 278.634C69.5786 278.132 70.5686 277.607 71.366 276.868C71.3661 276.868 71.3662 276.868 71.3664 276.868L71.1965 276.684C72.7744 275.241 73.8263 273.929 71.9854 272.879L87.6553 344.92ZM87.6553 344.92L66.8827 281.748L66.8105 281.529L67.0238 281.44L81.9635 275.196L67.6864 266.231C68.0559 267.306 68.6676 268.52 69.3846 269.627C70.2472 270.959 71.2407 272.102 72.1152 272.665L87.6553 344.92Z" fill="black" stroke="black" stroke-width="0.5"/>
</g>
</g>
</g>
<path d="M188.26 332.087C192.689 321.819 198.795 307.56 205.811 291.095L205.595 290.945C203.632 295.589 201.75 300.05 199.961 304.292C195.365 315.187 191.379 324.636 188.194 332.021C187.675 333.283 187.181 334.48 186.712 335.611C187.203 334.498 187.72 333.323 188.26 332.087ZM204.417 244.318C203.991 241.919 203.565 239.575 203.142 237.293C203.549 239.548 203.963 241.862 204.383 244.231L204.383 244.232C205.304 249.48 206.225 254.864 207.015 260.51L207.015 260.511L207.016 260.52C207.41 263.4 207.806 266.301 207.806 269.205L207.806 269.211C207.806 269.404 207.806 269.61 207.789 269.802C207.772 269.98 207.74 270.166 207.666 270.329C207.656 270.371 207.639 270.406 207.625 270.431C207.602 270.473 207.574 270.509 207.547 270.54C207.494 270.601 207.426 270.663 207.359 270.722C207.314 270.76 207.27 270.798 207.225 270.836C207.126 270.92 207.029 271.002 206.944 271.088L206.936 271.095L206.928 271.102L205.219 272.545L205.219 272.545L205.211 272.551L201.664 275.304C201.664 275.304 201.663 275.305 201.663 275.305C200.589 276.173 199.518 277.018 198.464 277.85C196.924 279.066 195.419 280.254 193.992 281.442L194.027 281.467C194.091 281.513 194.155 281.559 194.219 281.605C196.685 279.637 199.157 277.661 201.745 275.571L201.749 275.568L205.295 272.816L206.992 271.382L207.379 270.996C207.428 270.947 207.474 270.914 207.523 270.89C207.534 270.884 207.544 270.88 207.553 270.876C207.562 270.862 207.576 270.838 207.596 270.799L207.614 270.762L207.642 270.734C207.675 270.701 207.686 270.676 207.692 270.653C207.699 270.622 207.701 270.587 207.701 270.517V270.476L207.713 270.438C207.83 270.089 207.832 269.735 207.832 269.336C207.832 266.338 207.44 263.468 207.045 260.579C206.257 254.941 205.337 249.434 204.417 244.319L204.417 244.318ZM193.631 281.86V281.743L193.625 281.747L193.543 281.801L193.625 281.855L193.625 281.855L193.631 281.86ZM206.018 290.612L206.037 290.573L205.998 290.554L205.982 290.545L205.966 290.535C205.944 290.519 205.922 290.504 205.9 290.489L205.952 290.644L205.975 290.711C205.987 290.683 205.999 290.654 206.011 290.626L206.014 290.618L206.018 290.612ZM194.195 282.264C198.032 285.013 201.759 287.652 205.375 290.181L205.395 290.135C201.784 287.61 198.064 284.975 194.235 282.232C194.222 282.242 194.208 282.253 194.195 282.264Z" fill="#263238" stroke="black" stroke-width="0.5"/>
<path d="M87.8972 431.513L183.755 416.687C185.465 416.424 186.648 414.85 186.385 413.144L165.741 279.44C165.478 277.734 163.9 276.553 162.191 276.815L66.3324 291.642C64.623 291.905 63.4396 293.479 63.7026 295.185L84.3469 428.889C84.6099 430.595 86.1878 431.776 87.8972 431.513Z" fill="white"/>
<g opacity="0.2">
<g opacity="0.2">
<path opacity="0.2" d="M87.8972 431.513L183.755 416.687C185.465 416.424 186.648 414.85 186.385 413.144L165.741 279.44C165.478 277.734 163.9 276.553 162.191 276.815L66.3324 291.642C64.623 291.905 63.4396 293.479 63.7026 295.185L84.3469 428.889C84.6099 430.595 86.1878 431.776 87.8972 431.513Z" fill="black"/>
</g>
</g>
<path d="M69.2685 294.018L159.977 280.051L180.129 410.376L89.4214 424.342L69.2685 294.018Z" fill="#EBEBEB"/>
<path d="M96.5781 291.904C97.893 287.837 101.312 284.95 105.52 284.294L104.731 278.783C104.073 274.584 106.966 270.648 111.174 269.992C115.382 269.336 119.326 272.223 119.984 276.421L120.904 282.195L122.877 281.932C127.084 281.407 131.161 283.113 133.659 286.525L135.105 288.624L95.6576 294.66L96.5781 291.904ZM112.883 281.67C115.119 281.276 116.696 279.177 116.302 276.946C115.908 274.716 113.804 273.141 111.568 273.535C109.333 273.928 107.755 276.028 108.149 278.258C108.412 280.489 110.516 282.063 112.883 281.67Z" fill="#263238"/>
<path d="M129.311 303.714C129.311 303.845 134.834 303.189 141.672 302.14C148.509 301.09 153.9 300.04 153.9 299.909C153.9 299.778 148.378 300.434 141.54 301.484C134.702 302.533 129.18 303.583 129.311 303.714Z" fill="#263238"/>
<path d="M142.599 305.945C142.599 306.076 145.361 305.813 148.516 305.42C151.804 304.895 154.434 304.37 154.434 304.108C154.434 303.976 151.672 304.239 148.516 304.632C145.229 305.157 142.599 305.682 142.599 305.945Z" fill="#263238"/>
<path d="M86.5782 326.413C86.5782 326.545 101.963 324.445 120.898 321.427C139.833 318.541 155.086 316.048 155.086 315.785C155.086 315.654 139.701 317.754 120.766 320.771C101.963 323.658 86.5782 326.151 86.5782 326.413Z" fill="#263238"/>
<path d="M87.6407 332.842C87.6407 332.973 103.025 330.874 121.96 327.856C140.895 324.97 156.148 322.477 156.148 322.214C156.148 322.083 140.764 324.182 121.829 327.2C102.894 330.218 87.6407 332.711 87.6407 332.842Z" fill="#263238"/>
<path d="M88.6876 339.403C88.6876 339.534 104.072 337.435 123.007 334.417C141.942 331.53 157.195 329.037 157.195 328.775C157.195 328.643 141.811 330.743 122.876 333.761C103.941 336.647 88.6876 339.14 88.6876 339.403Z" fill="#263238"/>
<path d="M89.6114 345.964C89.6114 346.095 104.996 343.995 123.931 340.978C142.866 338.091 158.119 335.598 158.119 335.336C158.119 335.204 142.734 337.304 123.8 340.322C104.996 343.208 89.6114 345.701 89.6114 345.964Z" fill="#263238"/>
<path d="M90.6563 352.393C90.6563 352.525 106.041 350.425 124.976 347.407C143.911 344.521 159.164 342.028 159.164 341.765C159.164 341.634 143.779 343.733 124.844 346.751C105.909 349.769 90.6563 352.262 90.6563 352.393Z" fill="#263238"/>
<path d="M91.711 358.954C91.711 359.085 107.096 356.985 126.031 353.968C144.966 351.081 160.219 348.588 160.219 348.326C160.219 348.194 144.834 350.294 125.899 353.312C106.964 356.198 91.711 358.691 91.711 358.954Z" fill="#263238"/>
<path d="M126.826 359.478C126.826 359.478 127.351 359.478 128.14 359.347C129.061 359.216 130.244 359.085 131.822 358.953C134.978 358.56 139.186 357.904 143.92 357.248C148.653 356.46 152.861 355.804 156.017 355.28C157.595 355.017 158.778 354.755 159.699 354.623C160.619 354.492 161.014 354.361 161.014 354.23C161.014 354.23 160.488 354.23 159.699 354.361C158.778 354.492 157.595 354.623 156.017 354.755C152.861 355.148 148.653 355.804 143.92 356.46C139.186 357.248 134.978 357.904 131.822 358.429C130.244 358.691 129.061 358.953 128.14 359.085C127.351 359.347 126.826 359.478 126.826 359.478Z" fill="#263238"/>
<path d="M81.1944 310.537C81.1944 310.668 83.6928 310.537 86.7171 310.012C89.7414 309.487 92.2398 308.963 92.1083 308.831C92.1083 308.7 89.61 308.831 86.5856 309.356C83.5613 309.881 81.1944 310.406 81.1944 310.537Z" fill="#263238"/>
<path d="M144.573 371.288C144.573 371.419 148.649 371.025 153.514 370.238C158.379 369.451 162.324 368.663 162.324 368.532C162.324 368.401 158.248 368.795 153.383 369.582C148.517 370.369 144.573 371.156 144.573 371.288Z" fill="#263238"/>
<path d="M144.838 377.323C144.838 377.454 148.914 377.06 153.911 376.273C158.908 375.486 162.984 374.699 162.852 374.567C162.852 374.436 158.776 374.83 153.779 375.617C148.914 376.404 144.838 377.192 144.838 377.323Z" fill="#263238"/>
<path d="M92.8901 378.373C92.8901 378.504 94.8625 378.373 97.2294 378.111C99.5962 377.717 101.569 377.323 101.437 377.061C101.437 376.93 99.4647 377.061 97.0979 377.323C94.731 377.717 92.8901 378.242 92.8901 378.373Z" fill="#263238"/>
<path d="M93.4253 383.752C93.4253 383.884 95.3977 383.752 97.7645 383.49C100.131 383.096 102.104 382.703 101.972 382.44C101.972 382.309 99.9999 382.44 97.633 382.703C95.2662 383.096 93.4253 383.621 93.4253 383.752Z" fill="#263238"/>
<path d="M154.175 382.309C154.175 382.441 156.147 382.309 158.383 382.047C160.618 381.653 162.459 381.26 162.459 381.129C162.459 380.997 160.487 381.128 158.251 381.391C156.016 381.653 154.175 382.047 154.175 382.309Z" fill="#263238"/>
<path d="M94.0777 390.05C94.0777 390.182 95.5241 390.182 97.2335 389.919C98.9429 389.657 100.258 389.263 100.258 389.132C100.258 389.001 98.8114 389.001 97.102 389.263C95.3926 389.394 94.0777 389.788 94.0777 390.05Z" fill="#263238"/>
<path d="M165.221 394.905C165.221 394.905 164.695 394.905 163.643 394.905C162.591 394.905 161.144 395.036 159.304 395.036C155.49 395.168 150.099 395.43 143.656 395.693H143.261L143.393 396.086C143.787 397.661 144.708 399.235 146.154 400.285C147.601 401.335 149.573 401.991 151.414 401.466C153.255 401.072 155.096 399.629 155.753 397.792C156.542 395.824 155.753 393.462 154.175 392.15C153.518 391.625 152.86 391.231 152.071 391.1C151.94 391.1 151.677 390.969 151.545 390.969C151.414 390.969 151.151 390.969 150.888 390.969C150.625 390.969 150.362 391.231 150.231 391.494C150.099 391.756 150.099 392.019 150.099 392.15C150.231 393.593 150.756 395.036 151.545 396.349C152.334 397.529 153.255 398.579 154.438 399.366C155.622 400.154 156.937 400.679 158.383 400.679C159.83 400.679 161.013 399.629 161.539 398.448C162.065 397.267 162.065 395.955 161.802 394.774C161.144 392.412 159.435 390.838 158.12 389.526L157.726 389.132V389.657C157.463 391.625 157.989 393.593 158.778 394.905C159.567 396.349 160.487 397.267 161.407 398.054C162.328 398.71 163.117 399.104 163.643 399.235C164.169 399.366 164.563 399.498 164.563 399.498C164.563 399.366 163.38 399.235 161.67 397.792C160.881 397.136 159.961 396.086 159.172 394.774C158.515 393.462 157.989 391.625 158.252 389.788L157.857 389.919C159.172 391.363 160.75 392.937 161.276 395.036C161.539 396.086 161.539 397.267 161.013 398.317C160.618 399.366 159.567 400.154 158.383 400.154C157.2 400.154 156.016 399.76 154.964 398.973C153.912 398.186 152.992 397.267 152.203 396.086C151.545 394.905 151.019 393.593 150.888 392.281C150.888 392.15 150.888 392.019 150.888 391.887C150.888 391.887 150.888 391.756 151.019 391.756C151.282 391.756 151.677 391.756 151.94 391.887C152.597 392.019 153.255 392.412 153.781 392.806C155.227 393.987 155.753 396.086 155.227 397.792C154.57 399.498 152.992 400.679 151.414 401.072C149.705 401.466 147.995 401.072 146.68 400.023C145.365 399.104 144.445 397.661 144.182 396.217L143.919 396.611C150.362 396.217 155.622 395.955 159.567 395.693C161.407 395.561 162.854 395.43 163.906 395.43C164.695 395.036 165.221 394.905 165.221 394.905Z" fill="#263238"/>
<path d="M100.127 404.746C100.127 404.746 100.39 405.009 100.916 405.534C101.179 405.796 101.574 406.059 101.968 406.19C102.494 406.452 103.151 406.452 103.809 406.321C104.203 406.19 104.466 405.927 104.729 405.665C104.992 405.271 105.124 404.878 105.124 404.484C105.124 403.697 104.992 402.91 104.992 401.991C104.861 400.154 104.598 398.186 104.466 396.087L103.94 396.349C105.518 398.448 107.228 400.679 108.937 403.172C109.332 403.697 109.726 404.353 110.252 404.878L111.041 405.927L110.778 404.615C110.252 401.073 109.726 397.792 109.332 394.906L108.806 395.168C111.304 397.267 113.145 399.498 114.197 401.073C115.249 402.647 115.775 403.697 115.906 403.566C115.906 403.566 115.775 403.303 115.643 402.778C115.38 402.253 115.117 401.597 114.591 400.81C113.539 399.104 111.83 396.874 109.332 394.643L108.806 394.118L108.937 394.906C109.332 397.792 109.858 401.073 110.252 404.615L110.91 404.353C110.515 403.828 110.121 403.172 109.595 402.647C107.754 400.285 106.044 397.924 104.598 395.955L103.94 395.037L104.072 396.218C104.335 398.317 104.598 400.285 104.729 401.991C104.861 402.91 104.992 403.697 104.992 404.484C104.992 405.271 104.598 405.796 104.072 405.927C102.888 406.321 101.968 405.665 101.442 405.271C100.522 404.878 100.259 404.746 100.127 404.746Z" fill="#263238"/>
<path d="M97.8876 401.072C97.8876 401.204 103.673 401.335 110.774 401.335C117.874 401.335 123.66 401.072 123.66 400.941C123.66 400.81 117.874 400.679 110.774 400.679C103.673 400.81 97.8876 400.941 97.8876 401.072Z" fill="#263238"/>
<path d="M93.6857 405.271C93.6857 405.402 98.288 406.059 103.942 406.715C109.596 407.371 114.33 407.633 114.33 407.502C114.33 407.371 109.728 406.715 104.074 406.059C98.288 405.403 93.6857 405.009 93.6857 405.271Z" fill="#263238"/>
<g opacity="0.2">
<g opacity="0.2">
<g opacity="0.2">
<path opacity="0.2" d="M208.077 270.123C208.209 274.06 207.157 278.127 203.869 280.227C207.946 282.195 210.181 287.05 210.313 291.511C210.444 296.103 208.866 300.564 207.157 304.763C201.897 317.753 190.457 336.123 181.779 347.276C181.779 347.276 186.118 335.467 187.433 332.711C193.087 320.246 198.215 307.781 203.869 295.316C204.527 293.873 205.579 290.199 205.579 290.199C206.105 290.461 205.316 290.199 203.869 289.018C200.714 286.525 193.745 281.801 193.745 281.801C193.745 281.801 208.077 270.517 208.077 270.123Z" fill="black"/>
</g>
</g>
</g>
<path d="M208.212 296.89C208.081 296.89 208.344 311.98 209.001 330.743C209.659 349.375 210.185 364.595 210.448 364.595C210.579 364.595 210.316 349.506 209.659 330.743C209.001 311.98 208.475 296.89 208.212 296.89Z" fill="#263238"/>
<path d="M185.591 257.002H186.906C186.906 256.478 185.065 206.88 183.487 187.067C183.224 184.049 182.041 181.556 180.069 179.719C175.992 176.176 169.812 176.701 169.549 176.701L169.681 178.013C169.681 178.013 175.598 177.62 179.28 180.769C181.121 182.343 182.041 184.443 182.304 187.198C183.619 206.88 185.46 256.478 185.591 257.002Z" fill="#263238"/>
<path d="M173.229 340.19H175.596V337.566H173.229C168.101 337.566 164.024 333.499 164.024 328.381V300.565H161.394V328.381C161.394 334.811 166.786 340.19 173.229 340.19Z" fill="#455A64"/>
<path d="M172.307 339.141C172.439 340.715 173.885 341.765 175.463 341.634C177.041 341.503 178.093 340.059 177.962 338.485C177.83 336.91 176.384 335.861 174.806 335.992C173.228 336.254 172.176 337.566 172.307 339.141Z" fill="#263238"/>
<path d="M195.982 340.059H198.349C201.505 340.059 204.529 338.747 206.765 336.516C209 334.286 210.184 331.268 210.184 328.119L210.052 300.302H207.422L207.554 328.119C207.554 330.612 206.633 332.842 204.924 334.679C203.214 336.385 200.848 337.435 198.481 337.435H196.114L195.982 340.059Z" fill="#455A64"/>
<path d="M199.263 339.009C199.132 340.584 197.686 341.634 196.239 341.502C194.661 341.371 193.609 339.928 193.741 338.485C193.872 336.91 195.319 335.86 196.765 335.992C198.211 336.123 199.395 337.566 199.263 339.009Z" fill="#263238"/>
<path d="M210.834 303.713L211.097 283.9C211.36 268.811 200.315 256.346 186.508 256.084C179.802 255.952 173.359 258.708 168.493 263.825C163.76 268.942 160.998 275.765 160.867 282.982L160.472 302.795H164.417L164.812 282.982C164.943 276.684 167.178 270.779 171.386 266.449C175.462 262.119 180.722 259.758 186.376 259.889C198.079 260.02 207.415 270.779 207.152 283.638L206.758 303.451L210.834 303.713Z" fill="#263238"/>
<path d="M98.5476 257.789C98.5476 257.264 104.596 205.698 106.306 189.166L106.437 187.985C106.963 182.343 107.621 176.045 113.801 174.339L113.406 173.027C106.306 174.995 105.648 182.08 104.991 187.854L104.859 189.035C103.15 205.567 97.1012 257.133 97.1012 257.658L98.5476 257.789Z" fill="#263238"/>
<path d="M87.9273 258.942C82.4328 253.459 82.4328 244.57 87.9273 239.087C93.4219 233.604 102.33 233.604 107.825 239.087C113.319 244.57 113.319 253.459 107.825 258.942C102.33 264.425 93.4219 264.425 87.9273 258.942Z" fill="#263238"/>
<path d="M91.0513 248.998C91.0513 252.803 94.0756 255.821 97.8889 255.821C101.702 255.821 104.727 252.803 104.727 248.998C104.727 245.193 101.702 242.175 97.8889 242.175C94.0756 242.175 91.0513 245.193 91.0513 248.998Z" fill="#455A64"/>
<path d="M181.256 348.456L199.008 391.887L57.6531 430.988C44.5038 434.662 30.5656 432.169 19.3887 424.428C4.66148 414.062 0.979706 395.824 2.8206 377.848L5.31895 358.691L181.256 348.456Z" fill="white"/>
<path d="M31.6163 395.561C31.7478 395.561 32.0108 392.543 33.5887 387.951C33.9832 386.77 34.3776 385.589 34.9036 384.277C35.4296 382.965 36.087 381.653 36.7445 380.21C38.1909 377.454 40.1633 374.436 42.3987 371.55C44.7656 368.663 47.2639 366.301 49.7623 364.333C51.0772 363.415 52.2607 362.365 53.4441 361.709C54.6275 360.922 55.6795 360.266 56.7314 359.609C60.9392 357.248 63.832 356.329 63.832 356.198C63.832 356.198 63.0431 356.329 61.8596 356.854C61.2022 357.116 60.4132 357.379 59.6243 357.773C58.7038 358.166 57.7834 358.56 56.7314 359.216C55.6795 359.741 54.496 360.397 53.3126 361.184C52.1292 361.971 50.9457 362.89 49.6308 363.808C47.1324 365.776 44.5026 368.269 42.1357 371.156C39.7689 374.043 37.9279 377.061 36.4815 379.947C35.8241 381.391 35.1666 382.703 34.6406 384.146C34.1147 385.458 33.7202 386.77 33.3257 387.951C32.9312 389.132 32.7997 390.182 32.5367 391.1C32.2738 392.019 32.1423 392.806 32.1423 393.593C31.6163 394.774 31.4848 395.561 31.6163 395.561Z" fill="#263238"/>
<g opacity="0.2">
<g opacity="0.2">
<g opacity="0.2">
<path opacity="0.2" d="M202.162 366.958C212.944 367.876 221.228 368.795 232.405 370.238C239.374 371.025 246.606 370.632 248.842 363.94C251.077 357.379 249.631 349.769 245.949 343.864C242.267 337.96 236.35 324.183 204.923 334.68L202.162 366.958Z" fill="black"/>
</g>
</g>
</g>
<path d="M187.57 364.989C187.57 364.989 187.57 364.858 187.439 364.727C187.307 364.464 187.307 364.202 187.176 363.808C186.913 363.021 186.518 361.84 185.992 360.528C184.94 357.641 183.363 353.443 181.522 348.325V348.194H181.39C169.424 349.244 152.33 350.818 133.395 352.524C115.249 354.23 98.8127 355.804 86.8469 356.985C80.9297 357.641 76.196 358.035 72.7771 358.429C71.1992 358.56 69.8843 358.691 68.9638 358.822C68.5694 358.822 68.1749 358.954 67.9119 358.954C67.6489 358.954 67.5174 358.954 67.5174 359.085C67.5174 359.085 67.6489 359.085 67.9119 359.085C68.1749 359.085 68.5694 359.085 68.9638 359.085C69.8843 358.954 71.1992 358.954 72.7771 358.822C76.196 358.56 80.9297 358.166 86.8469 357.641C98.8127 356.592 115.249 355.017 133.395 353.443C152.33 351.606 169.556 350.031 181.39 348.85L181.127 348.719C183.1 353.836 184.677 357.904 185.861 360.922C186.387 362.365 186.913 363.415 187.176 364.202C187.307 364.596 187.439 364.858 187.57 364.989C187.57 364.989 187.57 364.858 187.57 364.989Z" fill="#263238"/>
<g opacity="0.2">
<g opacity="0.2">
<g opacity="0.2">
<path opacity="0.2" d="M129.438 409.863C109.319 415.243 97.2218 412.094 78.9443 402.122C75.5254 400.285 71.3177 397.267 68.1619 394.905C64.4801 392.15 61.3242 387.689 61.3242 387.689C84.8614 396.611 104.322 403.434 128.517 410.126" fill="black"/>
</g>
</g>
</g>
<path d="M187.567 364.464L182.965 351.737L193.616 335.073C195.457 332.186 198.481 330.087 201.9 329.562L241.085 322.214C241.085 322.214 242.926 326.938 237.798 329.956C232.67 332.842 209.527 338.222 209.527 338.222L245.161 337.566C245.161 337.566 246.213 342.683 242.268 344.52C238.192 346.357 212.814 347.275 212.814 347.275L245.293 351.868C245.293 351.868 245.424 356.985 238.061 357.116C232.144 357.116 219.915 356.329 216.101 355.804C215.444 355.673 214.918 356.198 214.786 356.723C214.655 357.379 215.049 357.904 215.707 358.035L237.272 363.152C240.165 363.808 240.296 368.007 237.535 368.663C237.14 368.794 236.746 368.794 236.351 368.794C232.67 368.4 210.71 365.645 210.71 365.645L209.527 368.138L187.567 364.464Z" fill="#FFBE9D"/>
<path d="M203.609 360.529C203.74 360.529 203.872 359.61 204.792 358.56C205.318 358.036 205.976 357.642 206.896 357.248C207.816 356.986 208.868 356.855 209.92 356.855C212.156 356.986 214.128 357.642 215.575 357.773C217.021 358.036 217.941 357.904 217.941 357.773C217.941 357.642 217.021 357.642 215.575 357.248C214.128 356.986 212.156 356.199 209.92 356.067C208.737 355.936 207.685 356.067 206.633 356.461C205.713 356.855 204.924 357.38 204.398 358.036C203.477 359.479 203.609 360.66 203.609 360.529Z" fill="#EE9062"/>
<path d="M200.184 350.818C200.184 350.818 200.315 350.425 200.578 349.9C200.841 349.375 201.498 348.588 202.419 348.063C204.391 346.882 207.81 347.276 211.229 347.538C214.779 347.801 217.935 348.325 220.302 348.588C222.669 348.85 224.115 349.113 224.115 348.981C224.115 348.85 222.669 348.588 220.433 348.063C218.067 347.669 214.911 347.144 211.36 346.751C209.52 346.62 207.81 346.488 206.232 346.488C204.654 346.488 203.208 346.882 202.156 347.538C201.104 348.194 200.578 349.113 200.315 349.637C200.052 350.425 200.052 350.818 200.184 350.818Z" fill="#EE9062"/>
<path d="M197.425 345.177C197.556 345.177 197.293 343.865 198.214 342.159C198.74 341.371 199.529 340.453 200.581 339.928C201.633 339.272 203.079 338.878 204.526 338.747C207.418 338.485 210.18 338.747 212.284 338.616C214.256 338.485 215.439 337.96 215.439 337.829C215.439 337.698 214.256 338.091 212.284 338.091C210.311 338.222 207.55 337.829 204.526 338.091C202.948 338.222 201.501 338.616 200.318 339.403C199.134 340.059 198.345 341.109 197.819 342.028C197.293 342.946 197.162 343.733 197.293 344.389C197.293 344.914 197.425 345.177 197.425 345.177Z" fill="#EE9062"/>
<path d="M70.0137 345.176C70.0137 345.176 70.0137 344.389 69.7507 343.077C69.6192 341.765 69.2247 339.797 68.8302 337.304C67.9098 332.449 66.3319 325.888 64.6225 318.541C62.9131 311.193 61.7296 304.632 61.2037 299.777C61.0722 298.596 60.9407 297.416 60.9407 296.497C60.8092 295.579 60.8092 294.66 60.8092 294.004C60.6777 292.692 60.6777 291.905 60.6777 291.905C60.6777 291.905 60.5462 292.692 60.5462 294.004C60.5462 294.66 60.5462 295.579 60.5462 296.497C60.5462 297.416 60.6777 298.596 60.8092 299.777C61.2037 304.632 62.3871 311.455 64.0965 318.672C65.8059 326.02 67.5153 332.58 68.4358 337.304C68.9617 339.666 69.3562 341.634 69.6192 342.946C69.8822 344.389 70.0137 345.176 70.0137 345.176Z" fill="#263238"/>
<path d="M56.3381 431.251C56.3381 431.251 56.6011 431.251 57.1271 431.12C57.653 430.989 58.442 430.858 59.3625 430.595C61.3349 430.07 64.0962 429.414 67.3835 428.627C74.0896 426.921 83.4256 424.428 93.682 421.673C103.938 418.786 113.143 416.162 119.718 414.063C123.005 413.013 125.635 412.226 127.607 411.57C128.528 411.307 129.185 411.045 129.711 410.914C130.237 410.782 130.5 410.651 130.5 410.651C130.5 410.651 130.237 410.651 129.711 410.782C129.185 410.914 128.396 411.176 127.607 411.307C125.635 411.832 123.005 412.619 119.718 413.538C113.011 415.506 103.807 417.999 93.5506 420.886C83.4256 423.641 74.0896 426.265 67.3835 428.102C64.0962 429.021 61.4663 429.677 59.4939 430.333C58.5735 430.595 57.916 430.726 57.3901 430.989C56.6011 431.12 56.3381 431.12 56.3381 431.251Z" fill="#263238"/>
<path d="M178.383 46.0496L174.701 194.287C173.386 210.951 158.002 221.189 140.119 219.615C122.104 218.04 108.297 211.213 109.349 194.287C110.401 176.573 111.322 165.941 111.322 165.941C111.322 165.941 88.7049 160.693 85.9436 130.646C84.4971 115.294 86.9955 89.9702 89.6254 69.8949C91.8607 53.0999 107.64 41.4221 124.339 44.3087" fill="#FFBE9D"/>
<path d="M96.0596 91.5447C95.7966 93.5128 97.3745 95.3498 99.4784 95.6122C101.582 95.8746 103.423 94.4313 103.686 92.4631C103.949 90.495 102.371 88.658 100.267 88.3956C98.1634 88.1332 96.3225 89.4453 96.0596 91.5447Z" fill="#263238"/>
<path d="M92.3835 87.6076C92.7779 88.1324 95.8023 86.1643 100.01 86.4267C104.086 86.6891 106.979 88.9197 107.505 88.5261C107.768 88.2637 107.374 87.3452 106.059 86.2955C104.875 85.2458 102.64 84.1961 100.142 84.0649C97.5117 83.9337 95.4078 84.721 94.0929 85.6394C92.6464 86.5579 92.1205 87.3452 92.3835 87.6076Z" fill="#263238"/>
<path d="M135.64 95.6119C135.377 97.5801 136.955 99.417 139.058 99.6795C141.162 99.9419 143.003 98.4986 143.266 96.5304C143.529 94.5622 141.951 92.7253 139.847 92.4628C137.744 92.2004 135.903 93.6437 135.64 95.6119Z" fill="#263238"/>
<path d="M132.741 91.0201C133.135 91.5449 136.16 89.5768 140.367 89.8392C144.444 90.1016 147.337 92.3322 147.863 91.9386C148.126 91.6761 147.731 90.7577 146.416 89.708C145.233 88.6583 142.997 87.6086 140.499 87.4774C137.869 87.3462 135.765 88.1334 134.45 89.0519C133.004 89.8392 132.609 90.7577 132.741 91.0201Z" fill="#263238"/>
<path d="M115.912 120.543C115.912 120.28 113.413 119.755 109.337 118.968C108.285 118.837 107.365 118.575 107.233 117.787C106.97 117 107.496 115.95 108.154 114.769C109.337 112.276 110.52 109.652 111.835 107.028C116.832 95.875 120.645 86.8214 120.119 86.559C119.725 86.2966 115.254 95.2189 110.126 106.241C108.943 108.996 107.759 111.62 106.576 114.113C106.05 115.294 105.392 116.606 105.787 118.181C106.05 118.968 106.707 119.624 107.365 119.887C108.022 120.149 108.68 120.149 109.074 120.28C113.282 120.543 115.78 120.674 115.912 120.543Z" fill="#263238"/>
<path d="M111.179 165.941C111.179 165.941 131.166 168.565 151.811 157.937C151.811 157.937 140.502 178.013 110.785 173.289L111.179 165.941Z" fill="#EE9062"/>
<path d="M132.729 74.8817C133.123 76.0626 137.2 75.8002 141.933 76.5875C146.799 77.3747 150.48 79.0805 151.269 78.0308C151.532 77.5059 151.006 76.4562 149.429 75.2753C147.982 74.0944 145.484 72.9135 142.591 72.3887C139.698 71.8639 137.068 72.1263 135.227 72.7823C133.518 73.4384 132.597 74.2257 132.729 74.8817Z" fill="#263238"/>
<path d="M94.6089 75.8001C95.2664 76.7186 98.1592 75.9313 101.578 76.1937C104.997 76.1937 107.89 77.2434 108.547 76.3249C108.81 75.9313 108.416 74.8816 107.232 73.9631C106.049 73.0447 104.076 72.1262 101.71 72.1262C99.3426 71.995 97.2388 72.7822 96.0553 73.7007C94.8719 74.488 94.3459 75.4065 94.6089 75.8001Z" fill="#263238"/>
<path d="M124.7 137.134C124.7 137.396 125.752 137.921 127.461 137.79C129.302 137.658 131.669 137.002 133.904 135.69C136.14 134.378 137.981 132.804 139.033 131.36C140.085 129.917 140.479 128.867 140.216 128.736C139.69 128.342 136.929 131.229 132.721 133.591C130.617 134.772 128.645 135.69 127.198 136.084C125.752 136.609 124.831 136.74 124.7 137.134Z" fill="#263238"/>
<path d="M204.143 116.213C204.274 116.344 212.558 109.258 222.683 100.467C232.677 91.676 240.829 84.3282 240.698 84.197C240.566 84.0658 232.282 91.1512 222.157 99.9423C212.032 108.733 204.011 116.081 204.143 116.213Z" fill="white"/>
<g opacity="0.2">
<g opacity="0.2">
<g opacity="0.2">
<path opacity="0.2" d="M64.3563 382.178C57.9131 380.341 51.3385 386.114 44.8953 384.671C40.9506 383.752 37.9262 380.21 36.2168 376.536C34.3759 372.862 33.4555 368.794 31.6146 365.12C29.7737 361.446 26.6178 358.166 22.5416 357.51C18.8598 356.985 14.389 358.691 11.6276 356.198C9.52376 354.23 9.78674 350.556 11.4961 348.194C13.2056 345.832 15.9669 344.52 18.4653 343.208C21.3581 341.765 24.3824 340.321 27.5383 339.665C30.6941 339.009 34.2444 339.14 37.0058 340.715C42.5285 343.864 43.5804 351.081 45.1583 357.248C46.2103 361.446 47.9197 365.645 50.5495 369.188C53.1794 372.731 56.9927 375.486 61.3319 376.142C63.0413 376.404 64.7508 376.404 66.1972 377.323C67.6436 378.241 68.1696 380.603 66.7231 381.522" fill="black"/>
</g>
</g>
</g>
<path d="M97.625 358.56L73.6933 350.294L52.26 316.835C50.1561 313.554 46.7373 311.193 42.924 310.537L4.39664 303.32C4.39664 303.32 2.55573 308.044 7.68395 311.061C12.8122 313.948 35.9549 319.328 35.9549 319.328L0.320351 318.672C0.320351 318.672 -0.731598 323.789 3.21319 325.626C7.15797 327.463 32.6676 328.381 32.6676 328.381L0.188873 332.974C0.188873 332.974 0.0573807 338.091 7.42097 338.222C13.3382 338.222 25.567 337.435 29.3803 336.91C30.0377 336.779 30.5637 337.304 30.6952 337.828C30.8267 338.485 30.4322 339.009 29.7747 339.141L8.20992 344.258C5.31708 344.914 5.18559 349.113 7.94694 349.769C8.34142 349.9 8.73589 349.9 9.13036 349.9C12.8122 349.506 34.7715 346.751 34.7715 346.751C34.7715 346.751 42.5295 373.912 47.5263 376.011C52.523 378.242 63.0424 378.766 63.0424 378.766L85.3962 387.558L97.625 358.56Z" fill="#FFBE9D"/>
<path d="M2.69352 318.541C2.69352 318.541 3.35098 318.672 4.53442 318.672C5.84934 318.672 7.55876 318.803 9.66265 318.934C14.0019 319.066 19.9191 319.328 26.4937 319.459C29.7811 319.59 32.9369 319.59 35.6982 319.722C38.5911 319.722 41.0894 319.984 43.0618 320.771C45.0342 321.559 46.2177 322.871 46.8751 323.92C47.5326 324.97 47.5326 325.626 47.6641 325.626C47.6641 325.626 47.6641 325.495 47.6641 325.101C47.5326 324.839 47.5326 324.314 47.1381 323.789C46.6121 322.74 45.2972 321.296 43.3248 320.378C41.3524 319.459 38.5911 319.197 35.8297 319.197C32.9369 319.066 29.781 319.066 26.6252 318.934C20.0506 318.803 14.1334 318.672 9.79413 318.541C7.69024 318.541 5.98084 318.541 4.66592 318.541C3.48248 318.41 2.69352 318.41 2.69352 318.541Z" fill="#EE9062"/>
<path d="M2.29458 332.974C2.29458 332.974 2.95205 332.974 4.00399 332.842C5.18742 332.711 6.76534 332.449 8.60624 332.318C12.551 331.793 17.9422 331.005 23.9909 330.087C27.0152 329.693 29.7766 329.169 32.4064 328.906C35.0363 328.644 37.2717 329.169 38.9811 330.087C40.6905 331.005 41.7424 332.186 42.3999 333.105C43.0573 334.023 43.3203 334.548 43.3203 334.548C43.3203 334.548 43.3203 334.417 43.1888 334.155C43.0573 333.892 42.9258 333.498 42.6628 332.974C42.1369 332.055 41.0849 330.743 39.244 329.693C37.5346 328.644 35.0363 328.119 32.4064 328.25C29.7766 328.381 26.8837 328.906 23.9909 329.431C18.0737 330.349 12.551 331.137 8.73774 331.793C6.89684 332.055 5.31892 332.318 4.13549 332.58C2.82056 332.842 2.29458 332.974 2.29458 332.974Z" fill="#EE9062"/>
<path d="M20.3089 341.24C20.3089 341.371 21.7553 340.977 24.1222 340.452C26.4891 339.927 29.6449 339.009 33.1952 338.353C34.1157 338.222 35.0361 337.959 35.6936 337.959C36.4825 337.959 37.2715 338.222 37.929 338.615C39.2439 339.403 40.1643 340.321 40.8218 341.371C42.0052 343.339 41.8737 344.913 42.0052 344.913C42.0052 344.913 42.1367 344.52 42.1367 343.864C42.1367 343.208 41.8737 342.158 41.3478 341.108C40.8218 340.059 39.7699 338.878 38.3234 338.09C37.666 337.697 36.7455 337.303 35.8251 337.303C34.9046 337.303 33.9842 337.566 33.1952 337.697C29.6449 338.484 26.4891 339.403 24.1222 340.059C21.7553 340.715 20.3089 341.24 20.3089 341.24Z" fill="#EE9062"/>
<path d="M275.535 376.667L203.74 367.876L77.7701 347.407L61.4649 388.213C108.802 404.615 157.323 419.31 205.055 432.3C208.342 433.219 213.602 433.35 216.889 433.35C232.669 433.35 271.985 426.921 275.535 376.667Z" fill="white"/>
<path d="M61.3415 388.083C61.3415 388.083 61.473 387.82 61.7359 387.427C61.9989 386.902 62.2619 386.246 62.6564 385.327C63.4454 383.359 64.6288 380.604 65.9437 377.192C68.8366 370.107 72.9128 359.872 77.9095 347.539L77.6466 347.67C94.7406 350.556 115.911 354.099 138.922 357.904C153.386 360.397 167.193 361.972 179.816 363.678C186.128 364.465 192.045 365.383 197.699 366.302C200.461 366.695 203.222 367.22 205.721 367.745C208.35 368.27 210.717 368.664 213.084 369.32C217.686 370.763 221.368 373.125 224.129 375.618C226.891 378.111 228.863 380.866 230.178 383.228C231.493 385.59 232.282 387.558 232.677 388.87C232.94 389.526 233.071 390.051 233.202 390.445C233.334 390.838 233.334 390.969 233.334 390.969C233.334 390.969 233.202 390.182 232.808 388.87C232.414 387.558 231.756 385.59 230.441 383.228C229.126 380.866 227.285 378.111 224.392 375.487C221.631 372.862 217.818 370.501 213.216 369.057C210.849 368.27 208.35 367.876 205.852 367.351C203.222 366.827 200.592 366.433 197.831 365.908C192.308 364.99 186.26 364.071 179.948 363.284C167.325 361.578 153.518 360.004 139.054 357.511C116.042 353.706 94.8721 350.294 77.7781 347.407H77.5151L77.3836 347.67C72.5184 360.004 68.4421 370.238 65.6807 377.455C64.3658 380.997 63.1824 383.753 62.5249 385.721C62.1304 386.64 61.8674 387.427 61.7359 387.952C61.473 387.82 61.3415 388.083 61.3415 388.083Z" fill="#263238"/>
<path d="M236.881 431.12C236.881 431.12 236.618 431.12 236.355 431.251C235.96 431.382 235.434 431.514 234.645 431.645C233.199 431.907 230.964 432.432 228.202 432.826C222.548 433.613 214.133 433.875 204.139 431.645C201.641 431.12 199.011 430.464 196.381 429.677C193.751 428.889 190.858 428.102 187.966 427.315C182.18 425.609 176 423.903 169.425 422.066C156.407 418.261 142.206 414.063 127.216 409.47C102.232 401.729 79.221 394.118 61.4695 388.083L61.601 388.476C66.4663 376.011 70.5425 365.777 73.3039 358.691C74.6188 355.149 75.8023 352.393 76.4597 350.425C76.8542 349.507 77.1172 348.851 77.2487 348.326C77.3802 347.801 77.5116 347.538 77.5116 347.538C77.5116 347.538 77.3802 347.801 77.1172 348.195C76.8542 348.719 76.5912 349.375 76.1967 350.294C75.4078 352.131 74.3558 354.886 72.9094 358.429C70.0166 365.514 65.9403 375.749 60.9436 388.083L60.8121 388.345L61.075 388.476C78.9581 394.643 101.838 402.385 126.821 410.126C141.812 414.719 156.013 419.049 169.031 422.722C175.605 424.559 181.785 426.265 187.571 427.971C190.464 428.758 193.225 429.545 195.987 430.333C198.616 431.12 201.246 431.776 203.745 432.301C213.87 434.4 222.285 434.138 227.939 433.219C233.857 432.301 236.881 431.12 236.881 431.12Z" fill="#263238"/>
<path d="M209.001 367.745C209.001 367.745 209.658 367.876 210.842 368.007C212.157 368.138 213.735 368.269 215.707 368.532C220.046 368.926 225.701 369.45 232.012 370.106C238.324 370.762 243.978 371.419 248.317 371.812C250.29 372.075 251.999 372.206 253.183 372.337C254.366 372.468 255.023 372.468 255.023 372.468C255.023 372.468 254.366 372.337 253.183 372.075C251.999 371.943 250.29 371.681 248.317 371.287C244.11 370.762 238.455 369.975 232.144 369.319C225.832 368.663 220.046 368.138 215.839 367.876C213.735 367.745 212.025 367.613 210.842 367.613C209.658 367.745 209.001 367.745 209.001 367.745Z" fill="#263238"/>
<path d="M72.8662 20.0102C83.2176 16.0118 95.0801 24.6356 105.933 21.7191C112.529 19.9629 117.148 14.2968 122.751 10.516C131.164 4.98409 143.645 3.20463 153.05 7.11502C162.455 11.0254 168.536 15.466 170.545 25.3915C178.412 20.0407 192.846 29.3106 198.339 38.9738C203.682 48.5083 203.343 58.8906 201.502 69.8058C198.285 88.5221 191.383 106.676 181.375 122.685C180.504 124.15 178.936 125.668 177.49 125.077C176.333 124.604 175.96 123.372 175.737 122.27C173.47 112.643 173.97 102.529 174.073 92.7244C174.165 82.7806 173.819 72.5899 170.05 63.4967C166.282 54.4034 158.246 46.3312 148.343 45.1175C141.13 44.261 133.782 47.1935 127.633 51.1554C121.494 55.2564 116.275 60.4079 110.447 64.9054C104.618 69.403 98.19 73.3859 90.8241 74.2204C83.5976 75.0444 75.4019 72.3025 71.8327 65.8534C68.274 59.5435 71.0458 49.8178 78.0386 47.7518C71.4461 47.6883 65.3022 42.4127 64.1128 35.9244C62.7946 29.5857 66.7411 22.4307 72.8662 20.0102Z" fill="#263238"/>
<path d="M65.1369 27.1689C65.1369 27.1689 65.0394 27.736 65.402 28.8284C65.7646 29.9207 66.5767 31.3991 68.2146 32.6753C69.8525 33.9515 72.4346 34.7368 75.5218 34.7843C77.0653 34.808 78.5985 34.6926 80.25 34.2883C81.9015 33.8841 83.6715 33.191 85.1103 31.823C86.4097 30.4656 87.5279 28.562 87.3602 26.3353C87.0532 24.1192 85.234 22.2968 83.0805 21.6192C81.9341 21.2856 80.7981 21.0912 79.5542 21.3249C78.3104 21.5585 77.2268 22.0599 76.3141 22.9684C74.4781 24.6461 73.5517 27.2351 73.7403 29.7401C73.7896 32.2556 75.1036 34.8158 77.0622 36.6277C79.0208 38.4396 81.4949 39.6528 84.2059 40.2885C89.6278 41.5597 95.4187 40.2839 100.558 37.7977C105.697 35.3114 110.215 32.0321 114.445 28.6347C118.685 25.3764 122.656 22.2782 126.959 19.8549C131.272 17.5708 135.788 16.1111 139.99 16.0746C144.332 16.0277 148.328 16.9863 151.67 18.5541C158.354 21.6897 162.484 26.2772 164.836 29.599C166.088 31.3242 166.889 32.6634 167.381 33.6061C167.872 34.5488 168.193 35.0844 168.193 35.0844C168.193 35.0844 168.182 34.9453 168.022 34.6774C167.862 34.4096 167.691 34.0026 167.52 33.5956C167.029 32.6529 166.216 31.1745 165.105 29.4388C162.752 26.1171 158.741 21.2408 151.907 17.9765C148.565 16.4087 144.419 15.3213 140.077 15.3683C135.596 15.4258 130.931 16.7568 126.628 19.1801C122.175 21.4747 118.075 24.7225 113.974 27.9703C109.734 31.2286 105.366 34.6366 100.216 36.9837C95.2059 39.3203 89.5545 40.5855 84.4217 39.4325C81.8606 38.9255 79.5259 37.7018 77.7171 36.0185C75.9084 34.3353 74.7547 32.0429 74.7159 29.6666C74.5378 27.3008 75.3458 25.0007 77.0528 23.4726C78.6205 21.955 80.9794 21.6374 82.9935 22.3255C84.9972 22.8744 86.5271 24.5786 86.8027 26.3773C87.0888 28.3151 86.0995 30.0691 84.929 31.2769C83.6191 32.4951 81.9885 33.1777 80.4763 33.5715C78.8248 33.9758 77.2917 34.0912 75.8875 34.057C72.9501 34.1382 70.5074 33.3424 68.88 32.2053C67.2526 31.0683 66.3011 29.6004 65.949 28.6472C65.1788 27.7255 65.1369 27.1689 65.1369 27.1689Z" fill="#455A64"/>
<path d="M202.375 55.3232C202.365 55.1841 200.219 56.4653 196.616 57.0165C194.814 57.2921 192.563 57.1816 190.142 56.6642C187.71 56.0076 185.246 54.9335 182.751 53.4419C177.9 50.4482 175.024 45.7663 173.787 42.3606C172.539 38.8157 172.5 36.4394 172.221 36.4603C172.221 36.4603 172.124 37.0275 172.208 38.1408C172.292 39.2542 172.546 40.7745 173.101 42.5522C174.22 46.2467 177.106 51.0678 182.246 54.1797C184.741 55.6713 187.354 56.8741 189.915 57.381C192.348 58.0376 194.727 57.9984 196.658 57.5731C198.588 57.1479 200.09 56.615 201.034 56.124C201.849 55.7827 202.375 55.3232 202.375 55.3232Z" fill="#455A64"/>
<path d="M202.017 69.2068C202.006 69.0676 199.808 69.653 196.152 69.5083C192.508 69.5029 187.535 68.6176 182.695 65.7631C177.994 62.8981 174.742 58.8043 173.108 55.7084C171.323 52.4839 170.877 50.2782 170.737 50.2887C170.737 50.2887 170.779 50.8453 170.992 51.809C171.205 52.7727 171.738 54.272 172.561 55.8896C174.216 59.2638 177.339 63.5072 182.329 66.4904C187.18 69.4841 192.571 70.3379 196.205 70.2042C198.027 70.2069 199.55 69.9523 200.515 69.7397C201.48 69.5271 202.027 69.3459 202.017 69.2068Z" fill="#455A64"/>
</svg>
