<svg width="272" height="261" viewBox="0 0 272 261" fill="none" xmlns="http://www.w3.org/2000/svg">
<path d="M117.71 78.0441C117.71 120.627 152.229 155.146 194.812 155.146C237.394 155.146 271.914 120.627 271.914 78.0441C271.914 35.4617 237.394 0.941895 194.812 0.941895C152.229 0.941895 117.71 35.4617 117.71 78.0441Z" fill="#75A29D"/>
<path fill-rule="evenodd" clip-rule="evenodd" d="M194.812 154.146C152.782 154.146 118.71 120.074 118.71 78.0441C118.71 36.014 152.782 1.94189 194.812 1.94189C236.842 1.94189 270.914 36.014 270.914 78.0441C270.914 120.074 236.842 154.146 194.812 154.146ZM194.812 155.146C152.229 155.146 117.71 120.627 117.71 78.0441C117.71 35.4617 152.229 0.941895 194.812 0.941895C237.394 0.941895 271.914 35.4617 271.914 78.0441C271.914 120.627 237.394 155.146 194.812 155.146Z" fill="black"/>
<path d="M156.376 67.6832C159.501 64.559 164.566 64.559 167.69 67.6832L198.623 98.6158L186.386 110.852L155.454 79.9196C152.329 76.7954 152.329 71.7301 155.454 68.6059L156.376 67.6832Z" fill="white"/>
<path d="M233.247 50.8926C230.123 47.7684 225.057 47.7684 221.933 50.8926L174.21 98.616L180.789 105.195C183.913 108.32 188.979 108.32 192.103 105.195L234.169 63.129C237.294 60.0048 237.294 54.9394 234.169 51.8153L233.247 50.8926Z" fill="white"/>
<path fill-rule="evenodd" clip-rule="evenodd" d="M178.353 99.6836C182.709 94.1082 181.719 86.0578 176.144 81.7025C170.569 77.3473 162.518 78.3364 158.163 83.9118L135.264 113.226C135.069 109.01 132.797 104.979 128.871 102.712C122.744 99.1743 114.909 101.274 111.372 107.401L110.793 108.404C111.479 103.398 109.149 98.2459 104.504 95.5638C98.3767 92.0264 90.5421 94.1257 87.0047 100.253L86.3167 101.444C86.8447 96.5545 84.5163 91.5851 79.9832 88.9679C73.8562 85.4304 66.0216 87.5297 62.4842 93.6567L52.3231 111.256L52.323 111.256L24.5383 159.381C10.9903 182.846 19.0303 212.852 42.4961 226.4C67.5709 240.877 99.2835 233.443 115.463 210.038C115.956 209.644 116.426 209.209 116.868 208.733L153.417 169.335C158.229 164.149 157.925 156.044 152.739 151.232C149.286 148.029 144.541 147.093 140.334 148.354L178.353 99.6836Z" fill="#FFBE9D"/>
<path fill-rule="evenodd" clip-rule="evenodd" d="M134.39 115.969L158.951 84.5274C162.966 79.3872 170.388 78.4753 175.528 82.4906C180.669 86.5059 181.581 93.9278 177.565 99.068L137.612 150.215L140.621 149.312C144.503 148.148 148.877 149.013 152.059 151.965C156.84 156.401 157.12 163.874 152.684 168.655L116.135 208.052C115.726 208.492 115.293 208.894 114.839 209.257L114.724 209.349L114.64 209.47C98.7546 232.449 67.6162 239.748 42.9961 225.534C20.0086 212.262 12.1324 182.868 25.4043 159.881L52.689 112.622L63.3502 94.1567C66.6115 88.508 73.8345 86.5726 79.4832 89.8339C83.6611 92.246 85.8095 96.8266 85.3225 101.337L87.1827 101.944L87.8707 100.753C91.132 95.1039 98.355 93.1686 104.004 96.4298C108.285 98.9018 110.435 103.651 109.802 108.268L111.659 108.904L112.238 107.901C115.499 102.252 122.722 100.316 128.371 103.578C131.99 105.667 134.086 109.382 134.266 113.272L134.39 115.969ZM158.163 83.9118C162.518 78.3364 170.569 77.3473 176.144 81.7025C181.719 86.0578 182.709 94.1082 178.353 99.6836L140.334 148.354C140.845 148.201 141.363 148.08 141.886 147.992C145.673 147.353 149.705 148.418 152.739 151.232C157.925 156.044 158.229 164.149 153.417 169.335L116.868 208.733C116.426 209.209 115.956 209.644 115.463 210.038C99.2835 233.443 67.5709 240.877 42.4961 226.4C19.0303 212.852 10.9903 182.846 24.5383 159.381L52.323 111.256L62.4842 93.6567C66.0216 87.5297 73.8562 85.4304 79.9832 88.9679C83.8731 91.2137 86.1396 95.1917 86.3708 99.3651C86.3806 99.5422 86.3867 99.7196 86.3892 99.8973C86.3963 100.412 86.3724 100.929 86.3167 101.444L87.0047 100.253C87.126 100.043 87.2523 99.8373 87.3834 99.6368C91.0773 93.9883 98.5867 92.1477 104.504 95.5638C108.484 97.8618 110.764 101.973 110.904 106.252C110.914 106.544 110.913 106.837 110.903 107.13C110.887 107.554 110.851 107.98 110.793 108.404L111.372 107.401C111.542 107.107 111.721 106.822 111.91 106.546C115.657 101.085 123.038 99.3441 128.871 102.712C132.348 104.72 134.529 108.112 135.117 111.79C135.193 112.265 135.242 112.744 135.264 113.226L158.163 83.9118Z" fill="black"/>
<path d="M40.0143 138.949C17.4505 195.164 64.4737 222.107 90.8057 228.551L79.7742 230.829C70.3593 232.773 60.5619 231.403 52.0416 226.95L47.6052 224.632C22.0034 211.253 13.7763 178.552 29.9987 154.651L41.2485 135.166L40.0143 138.949Z" fill="#FBAF89"/>
</svg>
