<svg width="31" height="31" viewBox="0 0 31 31" fill="none" xmlns="http://www.w3.org/2000/svg">
<path fill-rule="evenodd" clip-rule="evenodd" d="M13.4747 0.151095C11.6355 0.402368 10.2114 0.841882 8.56467 1.66641C4.76415 3.56943 1.87039 7.06516 0.712775 11.1517C-0.00292984 13.6782 -0.0639943 16.3544 0.535894 18.9032C1.42173 22.6672 3.76286 25.9992 7.06096 28.19C7.76119 28.6551 9.33512 29.4525 10.0991 29.7293C13.125 30.8253 16.2756 30.9852 19.3055 30.1964C27.0959 28.168 31.9961 20.4862 30.5374 12.5884C29.5564 7.27685 25.9028 2.90909 20.838 0.993235C18.5786 0.138575 15.8503 -0.173461 13.4747 0.151095ZM11.343 7.01907C12.0746 7.16207 12.162 7.24303 12.4051 8.00194C12.6449 8.7503 13.2599 11.2268 13.2599 11.4436C13.2599 11.7056 12.9337 12.1314 12.2427 12.7712C11.7644 13.2141 11.6028 13.4019 11.6028 13.5148C11.6028 13.9271 12.4309 15.5212 13.1462 16.486C13.6091 17.1103 14.3309 17.8654 14.9112 18.3321C15.4987 18.8047 16.3942 19.4064 16.7334 19.5565C16.9702 19.6612 17.021 19.6648 17.2009 19.589C17.312 19.5423 17.8033 19.14 18.2928 18.695C18.7822 18.25 19.2452 17.8701 19.3215 17.8507C19.408 17.8287 19.589 17.8783 19.8009 17.982C20.3353 18.2434 22.8615 19.9525 23.0779 20.1989C23.2509 20.396 23.2683 20.4491 23.2338 20.6747C23.1133 21.4616 22.7212 22.292 22.2712 22.7128C21.9344 23.0279 20.9293 23.5346 20.3795 23.6665C19.8389 23.7962 18.5826 23.7765 18.1396 23.6313C17.5486 23.4377 15.063 22.1748 14.4096 21.7361C12.757 20.6266 11.3871 19.2101 10.1566 17.3381C9.28436 16.0113 8.29333 14.0528 7.95963 12.9964C7.65747 12.0399 7.60327 10.7181 7.8303 9.84181C8.12258 8.71384 9.07826 7.49479 10.0105 7.06086C10.4056 6.87692 10.5869 6.87127 11.343 7.01907Z" fill="#333333"/>
</svg>
