<svg width="32" height="31" viewBox="0 0 32 31" fill="none" xmlns="http://www.w3.org/2000/svg">
<path fill-rule="evenodd" clip-rule="evenodd" d="M14.7983 0.0580064C13.2979 0.236545 11.9966 0.522649 10.8996 0.915151C10.0483 1.2198 8.44165 2.03353 7.67593 2.54797C5.15766 4.23973 3.19232 6.5913 2.04251 9.28841C0.708441 12.4177 0.434738 15.8515 1.25928 19.1141C2.32431 23.3282 5.1991 26.955 9.06175 28.9575C12.4311 30.7043 16.3486 31.1488 19.9923 30.1978C25.4159 28.7823 29.6303 24.5414 31.0058 19.1152C31.357 17.7298 31.4332 17.054 31.4321 15.3359C31.4308 13.6199 31.3525 12.9243 31.007 11.5612C29.431 5.34417 24.0571 0.721264 17.662 0.0812757C17.0739 0.0224586 15.2234 0.00735496 14.7983 0.0580064ZM22.4183 8.32352C22.77 8.64591 22.7626 8.76587 22.2348 11.2531C20.5077 19.3931 20.158 21.0209 20.073 21.3157C19.9431 21.7665 19.7063 21.9973 19.3739 21.9973C18.9807 21.9973 18.965 21.9872 16.3092 20.019C15.5869 19.4838 14.9749 19.0538 14.9493 19.0634C14.9236 19.0731 14.4722 19.4886 13.9463 19.9867C13.0608 20.8254 12.5056 21.2293 12.3931 21.1168C12.34 21.0637 12.6092 17.487 12.6804 17.2997C12.7079 17.2275 12.8659 17.0462 13.0316 16.8969C13.3279 16.6296 15.8237 14.3534 16.3638 13.8578C16.5158 13.7184 17.3032 12.9966 18.1136 12.2539C19.7739 10.7324 19.8311 10.6745 19.7699 10.5754C19.6871 10.4415 19.4014 10.568 18.4803 11.1463C17.1334 11.9918 11.5648 15.4819 10.9886 15.8417L10.4944 16.1502L8.53276 15.5505C7.45392 15.2206 6.49461 14.9153 6.40092 14.8719C6.08332 14.7248 6.12163 14.331 6.47914 14.0686C6.61759 13.967 7.60765 13.5771 13.0792 11.4691C13.9909 11.1179 15.7453 10.4408 16.9778 9.96444C18.2103 9.48813 19.4674 9.00366 19.7713 8.88781C20.0752 8.77195 20.6416 8.554 21.0299 8.40346C21.9076 8.0632 22.1208 8.05092 22.4183 8.32352Z" fill="#333333"/>
</svg>
